<svg width="98" height="101" viewBox="0 0 98 101" fill="none" xmlns="http://www.w3.org/2000/svg">
<path d="M40.4697 10.8371C42.8893 10.4023 45.2774 10.1755 47.6654 10.1755C50.0534 10.1755 52.4415 10.4023 54.8738 10.8371C57.5328 11.3223 60.0343 9.53277 60.5007 6.93039C60.967 4.30287 59.2279 1.78246 56.594 1.30354C50.671 0.238663 44.6725 0.238663 38.7374 1.30354C36.1099 1.76982 34.3645 4.30287 34.8307 6.93039C35.297 9.54533 37.83 11.3032 40.4576 10.8371H40.4697Z" fill="#FF3D60"/>
<path d="M16.3366 17.6116C15.4356 16.8366 14.3203 16.4648 13.205 16.4648C11.8314 16.4648 10.4641 17.0445 9.51254 18.1724C7.55928 20.4786 5.82007 22.9486 4.35203 25.4943C2.88388 28.0399 1.61111 30.7871 0.596651 33.6227C0.161882 34.8325 0.224889 36.1557 0.773089 37.3151C1.32127 38.4745 2.30424 39.3629 3.51401 39.7978C5.98393 40.6863 8.81953 39.3126 9.70785 36.8804C10.5333 34.5742 11.5603 32.3626 12.7386 30.3148C13.9295 28.2481 15.3347 26.2632 16.9161 24.3918C18.6426 22.3566 18.3843 19.2942 16.3491 17.5677L16.3366 17.6116Z" fill="#FF3D60"/>
<path d="M12.7457 70.6656C11.5548 68.6178 10.534 66.4061 9.71492 64.0999C9.0029 62.1339 7.13144 60.9053 5.15302 60.9053C4.62374 60.9053 4.05664 60.9998 3.52108 61.1951C2.31128 61.6299 1.32828 62.5183 0.780162 63.6778C0.231978 64.8561 0.168958 66.1605 0.603727 67.3703C1.6182 70.212 2.89734 72.9529 4.3591 75.4987C5.82725 78.0442 7.56636 80.5143 9.51961 82.8205C11.183 84.7738 14.3777 85.0448 16.3437 83.3876C18.3789 81.6611 18.6373 78.6115 16.9108 76.5635C15.3292 74.692 13.924 72.7073 12.7521 70.6405L12.7457 70.6656Z" fill="#FF3D60"/>
<path d="M38.7433 99.7009C42.4986 100.381 46.2605 100.633 50.0158 100.444C50.4002 100.426 50.772 100.394 51.1626 100.363L52.2779 100.281C52.8765 100.23 53.4688 100.155 54.0549 100.085L54.5085 100.022C55.1386 99.9404 55.7687 99.8269 56.38 99.7324L56.6195 99.682C67.8606 97.6342 78.1571 91.7112 85.6224 83.0029L85.8807 82.7446C87.4938 80.8417 89.0438 78.6805 90.4111 76.4183L90.638 76.0465C90.7514 75.8512 90.8648 75.6748 90.9782 75.4795C91.1043 75.2526 91.2177 75.0258 91.35 74.8178L91.7218 74.1562C91.9801 73.6584 92.2384 73.1544 92.4968 72.6566C92.6417 72.3793 92.774 72.1084 92.9001 71.8311C93.0261 71.5728 93.1395 71.3019 93.2718 71.0246C93.5302 70.426 93.7381 69.9912 93.9145 69.5376L94.0406 69.1973C96.4601 63.2303 97.6888 56.9354 97.6888 50.5019C97.6888 43.6967 96.3341 37.0807 93.675 30.8548C93.675 30.8548 93.6246 30.7729 93.5805 30.691C92.7551 28.788 91.8855 27.0616 90.9844 25.4988C89.5163 22.9532 87.7772 20.4832 85.8239 18.177C84.0975 16.1418 81.0478 15.8833 78.9999 17.6099C78.0169 18.4479 77.4183 19.6073 77.3049 20.8991C77.1914 22.1908 77.5947 23.4447 78.4327 24.4339C80.0143 26.3054 81.4195 28.2901 82.5914 30.3569C83.7823 32.4047 84.8031 34.6164 85.6222 36.9226C87.2037 41.3397 87.9914 45.889 87.9914 50.5202C87.9914 55.1515 87.2038 59.7323 85.6349 64.0864L85.5845 64.2125C85.2127 65.2458 84.7969 66.2477 84.3117 67.3126L84.1857 67.6214C83.8013 68.4594 83.3476 69.3289 82.7994 70.2994C82.6545 70.5388 82.5222 70.7971 82.3773 71.0429C81.911 71.8305 81.4069 72.6055 80.8776 73.3805C80.7012 73.62 80.5248 73.8783 80.3484 74.1241C79.8191 74.8676 79.252 75.6111 78.6533 76.3169C72.5855 83.6071 64.1169 88.5282 54.8413 90.2044C53.6819 90.4123 52.4848 90.5761 51.3064 90.6896H51.1426C47.6077 91.0109 44.0098 90.8534 40.4498 90.2044C37.8222 89.7381 35.3018 91.4772 34.8229 94.1111C34.5961 95.3839 34.8733 96.6566 35.6105 97.7216C36.3541 98.7865 37.4504 99.4985 38.7233 99.719L38.7433 99.7009Z" fill="#FF3D60"/>
<path d="M31.3394 66.8271C33.1604 68.6481 36.355 68.6481 38.176 66.8271L47.6591 57.3441L57.1421 66.8271C58.9631 68.6481 62.1578 68.6481 63.9788 66.8271C65.7998 65.0062 65.8691 61.8746 63.9788 59.9905L54.4957 50.5075L63.9788 41.0244C65.8691 39.1341 65.8691 36.0718 63.9788 34.1878C62.0884 32.2974 58.9631 32.3668 57.1421 34.1878L47.6591 43.6708L38.176 34.1878C36.355 32.3668 33.1604 32.3668 31.3394 34.1878C29.5184 36.0088 29.449 39.1404 31.3394 41.0244L40.8224 50.5075L31.3394 59.9905C29.449 61.8808 29.449 64.9431 31.3394 66.8271Z" fill="#FF3D60"/>
</svg>
