<svg width="14" height="16" viewBox="0 0 14 16" fill="none" xmlns="http://www.w3.org/2000/svg">
<path fill-rule="evenodd" clip-rule="evenodd" d="M10.375 2.35846V2.52871C11.3492 2.6178 12.3195 2.7459 13.2835 2.91271C13.3563 2.92532 13.4259 2.95214 13.4883 2.99164C13.5507 3.03114 13.6047 3.08255 13.6473 3.14293C13.6899 3.20331 13.7201 3.27148 13.7363 3.34355C13.7525 3.41562 13.7544 3.49018 13.7418 3.56296C13.7291 3.63575 13.7023 3.70534 13.6628 3.76776C13.6233 3.83018 13.5719 3.8842 13.5115 3.92676C13.4512 3.96931 13.383 3.99955 13.3109 4.01576C13.2388 4.03197 13.1643 4.03382 13.0915 4.02121L12.9348 3.99496L12.181 13.7975C12.1375 14.3626 11.8824 14.8906 11.4665 15.2758C11.0506 15.6609 10.5046 15.8749 9.93775 15.875H4.063C3.49615 15.8749 2.9502 15.6609 2.5343 15.2758C2.1184 14.8906 1.86321 14.3626 1.81975 13.7975L1.06525 3.99496L0.908505 4.02121C0.83572 4.03382 0.761164 4.03197 0.689095 4.01576C0.617026 3.99955 0.548854 3.96931 0.488473 3.92676C0.366528 3.84082 0.283716 3.70996 0.258255 3.56296C0.232794 3.41596 0.26677 3.26487 0.352709 3.14293C0.438647 3.02098 0.569509 2.93817 0.716505 2.91271C1.68045 2.7457 2.65074 2.6176 3.62501 2.52871V2.35846C3.62501 1.18546 4.53475 0.183461 5.73701 0.145211C6.57904 0.118263 7.42172 0.118263 8.26376 0.145211C9.46601 0.183461 10.375 1.18546 10.375 2.35846ZM5.77301 1.26946C6.59105 1.2433 7.40971 1.2433 8.22776 1.26946C8.79251 1.28746 9.25 1.76296 9.25 2.35846V2.44321C7.75139 2.3522 6.24862 2.3522 4.75 2.44321V2.35846C4.75 1.76296 5.20676 1.28746 5.77301 1.26946ZM5.50675 5.72821C5.5039 5.65434 5.48652 5.58176 5.45561 5.51461C5.42471 5.44745 5.38088 5.38705 5.32662 5.33683C5.27237 5.28662 5.20876 5.24759 5.13942 5.22196C5.07008 5.19633 4.99637 5.1846 4.9225 5.18746C4.84864 5.19032 4.77605 5.20769 4.7089 5.2386C4.64175 5.26951 4.58134 5.31334 4.53113 5.36759C4.48092 5.42185 4.44188 5.48546 4.41625 5.5548C4.39062 5.62413 4.3789 5.69784 4.38175 5.77171L4.642 12.5217C4.64777 12.6708 4.71253 12.8115 4.82203 12.9128C4.87624 12.963 4.93982 13.002 5.00911 13.0276C5.0784 13.0532 5.15206 13.0649 5.22588 13.0621C5.2997 13.0592 5.37223 13.0419 5.43934 13.011C5.50645 12.9801 5.56681 12.9363 5.61699 12.8821C5.66717 12.8278 5.70618 12.7643 5.73179 12.695C5.7574 12.6257 5.76911 12.552 5.76625 12.4782L5.50675 5.72821ZM9.61676 5.77171C9.62225 5.69642 9.61254 5.6208 9.5882 5.54934C9.56386 5.47789 9.52538 5.41206 9.47506 5.35579C9.42474 5.29952 9.36361 5.25395 9.29531 5.2218C9.22702 5.18965 9.15294 5.17158 9.07751 5.16866C9.00208 5.16574 8.92683 5.17803 8.85625 5.2048C8.78567 5.23158 8.7212 5.27228 8.66668 5.32449C8.61217 5.37671 8.56871 5.43936 8.53892 5.50872C8.50912 5.57808 8.49359 5.65272 8.49326 5.72821L8.23301 12.4782C8.22724 12.6274 8.28097 12.7728 8.38238 12.8823C8.48379 12.9919 8.62457 13.0567 8.77376 13.0625C8.92294 13.0682 9.06831 13.0145 9.17787 12.9131C9.28744 12.8117 9.35224 12.6709 9.35801 12.5217L9.61676 5.77171Z" fill="#292D32"/>
</svg>
