<svg width="24" height="25" viewBox="0 0 24 25" fill="none" xmlns="http://www.w3.org/2000/svg">
<path d="M21 22.5H3C2.59 22.5 2.25 22.16 2.25 21.75C2.25 21.34 2.59 21 3 21H21C21.41 21 21.75 21.34 21.75 21.75C21.75 22.16 21.41 22.5 21 22.5Z" fill="white"/>
<path d="M19.0196 3.98C17.0796 2.04 15.1796 1.99 13.1896 3.98L11.9796 5.19C11.8796 5.29 11.8396 5.45 11.8796 5.59C12.6396 8.24001 14.7596 10.36 17.4096 11.12C17.4496 11.13 17.4896 11.14 17.5296 11.14C17.6396 11.14 17.7396 11.1 17.8196 11.02L19.0196 9.81001C20.0096 8.83001 20.4896 7.88 20.4896 6.92C20.4996 5.93 20.0196 4.97 19.0196 3.98Z" fill="white"/>
<path d="M15.6103 12.03C15.3203 11.89 15.0403 11.75 14.7703 11.59C14.5503 11.46 14.3403 11.32 14.1303 11.17C13.9603 11.06 13.7603 10.9 13.5703 10.74C13.5503 10.73 13.4803 10.67 13.4003 10.59C13.0703 10.31 12.7003 9.95 12.3703 9.55C12.3403 9.53 12.2903 9.46 12.2203 9.37C12.1203 9.25 11.9503 9.05 11.8003 8.82C11.6803 8.67 11.5403 8.45 11.4103 8.23C11.2503 7.96 11.1103 7.69 10.9703 7.41C10.9491 7.36461 10.9286 7.31944 10.9088 7.27454C10.7612 6.94122 10.3265 6.84378 10.0688 7.10153L4.34032 12.83C4.21032 12.96 4.09032 13.21 4.06032 13.38L3.52032 17.21C3.42032 17.89 3.61032 18.53 4.03032 18.96C4.39032 19.31 4.89032 19.5 5.43032 19.5C5.55032 19.5 5.67032 19.49 5.79032 19.47L9.63032 18.93C9.81032 18.9 10.0603 18.78 10.1803 18.65L15.9016 12.9287C16.1612 12.6691 16.0633 12.2237 15.7257 12.0796C15.6877 12.0634 15.6492 12.0469 15.6103 12.03Z" fill="white"/>
</svg>
