<svg width="16" height="16" viewBox="0 0 16 16" fill="none" xmlns="http://www.w3.org/2000/svg">
<path d="M14.4855 1.51246C14.1574 1.18433 13.7123 1 13.2482 1C12.7841 1 12.3391 1.18433 12.0109 1.51246L11.2395 2.28379L13.7142 4.75846L14.4855 3.98713C14.8137 3.65895 14.998 3.21387 14.998 2.74979C14.998 2.28571 14.8137 1.84064 14.4855 1.51246ZM13.0069 5.46579L10.5322 2.99113L4.93222 8.59113C4.52078 9.00235 4.21833 9.50964 4.05222 10.0671L3.51888 11.8571C3.49313 11.9435 3.49121 12.0352 3.51333 12.1226C3.53544 12.21 3.58076 12.2898 3.64449 12.3535C3.70823 12.4173 3.78801 12.4626 3.87539 12.4847C3.96277 12.5068 4.0545 12.5049 4.14088 12.4791L5.93088 11.9458C6.48837 11.7797 6.99566 11.4772 7.40688 11.0658L13.0069 5.46579Z" fill="#9C4210"/>
<path d="M3.49805 3.5C2.96761 3.5 2.45891 3.71071 2.08383 4.08579C1.70876 4.46086 1.49805 4.96957 1.49805 5.5V12.5C1.49805 13.0304 1.70876 13.5391 2.08383 13.9142C2.45891 14.2893 2.96761 14.5 3.49805 14.5H10.498C11.0285 14.5 11.5372 14.2893 11.9123 13.9142C12.2873 13.5391 12.498 13.0304 12.498 12.5V9C12.498 8.86739 12.4454 8.74022 12.3516 8.64645C12.2578 8.55268 12.1307 8.5 11.998 8.5C11.8654 8.5 11.7383 8.55268 11.6445 8.64645C11.5507 8.74022 11.498 8.86739 11.498 9V12.5C11.498 12.7652 11.3927 13.0196 11.2052 13.2071C11.0176 13.3946 10.7633 13.5 10.498 13.5H3.49805C3.23283 13.5 2.97848 13.3946 2.79094 13.2071C2.6034 13.0196 2.49805 12.7652 2.49805 12.5V5.5C2.49805 5.23478 2.6034 4.98043 2.79094 4.79289C2.97848 4.60536 3.23283 4.5 3.49805 4.5H6.99805C7.13066 4.5 7.25783 4.44732 7.3516 4.35355C7.44537 4.25979 7.49805 4.13261 7.49805 4C7.49805 3.86739 7.44537 3.74021 7.3516 3.64645C7.25783 3.55268 7.13066 3.5 6.99805 3.5H3.49805Z" fill="#9C4210"/>
</svg>
