<svg width="382" height="256" viewBox="0 0 382 256" fill="none" xmlns="http://www.w3.org/2000/svg">
<g clip-path="url(#clip0_1531_1402)">
<path d="M76.4865 256.002C67.4354 255.995 58.6074 253.22 51.2087 248.056C43.8101 242.891 38.2017 235.59 35.1501 227.149C32.9316 221.03 32.1282 214.495 32.7991 208.026C26.066 206.282 19.8481 202.978 14.6585 198.384C9.46891 193.791 5.4564 188.041 2.95212 181.61C-5.78628 159.184 5.47886 133.979 28.1178 125.33L313.688 16.1189C323.895 12.2119 335.206 12.2184 345.409 16.137C355.611 20.0557 363.971 27.6045 368.851 37.3062C373.731 47.0079 374.78 58.1644 371.794 68.5923C368.808 79.0202 362.001 87.9691 352.706 93.6879L273.138 142.674L324.102 135.962C348.161 132.795 370.249 149.544 373.449 173.37C376.648 197.197 359.74 219.082 335.684 222.251L82.3028 255.62C80.3747 255.874 78.4316 256.002 76.4865 256.002Z" fill="#E9ECF4"/>
<path d="M288.608 12.1943C286.928 12.1946 285.25 12.3017 283.584 12.5149C283.482 12.53 283.39 12.5823 283.325 12.6617C283.26 12.741 283.228 12.8415 283.234 12.9433C283.241 13.0452 283.285 13.141 283.36 13.2117C283.434 13.2825 283.532 13.3231 283.635 13.3255H283.688C284.816 13.1813 285.947 13.0966 287.073 13.0439H287.188H287.302H288.608C288.717 13.0439 288.822 13.0009 288.899 12.9245C288.976 12.8481 289.019 12.7444 289.019 12.6363C289.019 12.5282 288.976 12.4245 288.899 12.3481C288.822 12.2716 288.717 12.2287 288.608 12.2287V12.1943ZM278.743 13.4515C278.708 13.4516 278.673 13.4562 278.639 13.4653C277.015 13.8872 275.42 14.4112 273.863 15.0339C273.813 15.0533 273.767 15.0824 273.728 15.1196C273.689 15.1568 273.658 15.2013 273.636 15.2505C273.615 15.2997 273.603 15.3527 273.603 15.4063C273.602 15.4599 273.612 15.5131 273.632 15.5628C273.663 15.6382 273.716 15.7029 273.784 15.7485C273.851 15.7942 273.932 15.8188 274.014 15.8193C274.066 15.8185 274.118 15.8084 274.166 15.7895C275.509 15.2563 276.88 14.7976 278.274 14.4156H278.3L278.371 14.3972H278.385H278.404H278.422H278.436H278.468H278.501H278.529L278.822 14.3194C278.938 14.3091 279.046 14.2534 279.12 14.1648C279.195 14.0761 279.231 13.9616 279.221 13.8465C279.21 13.7314 279.154 13.6252 279.065 13.5511C278.975 13.477 278.86 13.4412 278.743 13.4515ZM269.45 16.8589C269.397 16.8596 269.344 16.8705 269.295 16.891L264.732 18.7458C264.645 18.7823 264.573 18.8475 264.528 18.9304C264.484 19.0133 264.47 19.1088 264.488 19.2009C264.507 19.2929 264.557 19.3758 264.63 19.4356C264.703 19.4954 264.794 19.5284 264.889 19.529C264.942 19.5291 264.993 19.519 265.042 19.4992L269.607 17.6421C269.658 17.6226 269.704 17.5935 269.743 17.5563C269.782 17.5191 269.813 17.4746 269.835 17.4254C269.856 17.3762 269.867 17.3233 269.868 17.2697C269.869 17.2161 269.859 17.1628 269.839 17.1131C269.808 17.0381 269.755 16.974 269.687 16.9287C269.619 16.8835 269.539 16.8592 269.457 16.8589H269.45ZM260.326 20.5709C260.273 20.5708 260.22 20.5809 260.171 20.6006L255.608 22.4578C255.512 22.502 255.437 22.5812 255.398 22.6788C255.359 22.7765 255.36 22.8851 255.4 22.9821C255.441 23.0791 255.517 23.157 255.614 23.1997C255.71 23.2423 255.82 23.2465 255.92 23.2112L260.483 21.354C260.57 21.3176 260.642 21.2524 260.687 21.1695C260.731 21.0866 260.745 20.991 260.727 20.899C260.708 20.807 260.658 20.724 260.585 20.6643C260.512 20.6045 260.421 20.5715 260.326 20.5709ZM251.201 24.2829C251.148 24.2827 251.096 24.2929 251.046 24.3126L246.483 26.1675C246.394 26.203 246.321 26.2681 246.275 26.3516C246.23 26.435 246.215 26.5316 246.234 26.6246C246.252 26.7176 246.303 26.8013 246.377 26.8612C246.452 26.9211 246.545 26.9536 246.64 26.9529C246.694 26.9522 246.748 26.9413 246.797 26.9208L251.278 25.0889H251.301H251.315H251.328C251.416 25.0524 251.488 24.9873 251.532 24.9044C251.576 24.8214 251.591 24.7259 251.572 24.6339C251.554 24.5418 251.504 24.4589 251.431 24.3992C251.358 24.3394 251.266 24.3064 251.171 24.3058L251.201 24.2829ZM242.079 27.9925C242.025 27.993 241.972 28.0039 241.922 28.0246L237.361 29.8794C237.274 29.9158 237.202 29.9808 237.158 30.0635C237.113 30.1462 237.099 30.2415 237.117 30.3334C237.135 30.4253 237.185 30.5082 237.257 30.5681C237.33 30.6281 237.421 30.6615 237.516 30.6626C237.568 30.6626 237.62 30.6533 237.668 30.6351L240.345 29.5451H240.357L242.232 28.7825C242.32 28.747 242.394 28.6821 242.439 28.599C242.485 28.5158 242.5 28.4195 242.481 28.3266C242.463 28.2337 242.413 28.15 242.339 28.0899C242.265 28.0298 242.172 27.997 242.077 27.9971L242.079 27.9925ZM232.971 31.7091C232.917 31.7088 232.864 31.7189 232.814 31.7389L228.241 33.6029C228.154 33.6392 228.082 33.7043 228.038 33.7869C227.993 33.8696 227.979 33.9649 227.997 34.0568C228.015 34.1487 228.065 34.2316 228.138 34.2916C228.21 34.3515 228.301 34.3849 228.396 34.386C228.449 34.3863 228.502 34.3762 228.551 34.3563L233.119 32.4991C233.206 32.4626 233.278 32.3972 233.323 32.314C233.367 32.2309 233.381 32.1351 233.362 32.043C233.343 31.9508 233.293 31.8679 233.22 31.8083C233.146 31.7487 233.054 31.7161 232.959 31.716L232.971 31.7091ZM223.846 35.421C223.793 35.4207 223.739 35.4309 223.689 35.4508L219.128 37.3057C219.076 37.3242 219.028 37.3531 218.987 37.3905C218.946 37.428 218.913 37.4733 218.891 37.5236C218.868 37.574 218.856 37.6283 218.855 37.6834C218.854 37.7385 218.865 37.7932 218.886 37.8442C218.907 37.8952 218.938 37.9414 218.978 37.9801C219.018 38.0187 219.065 38.049 219.117 38.0691C219.169 38.0892 219.224 38.0986 219.28 38.0969C219.335 38.0952 219.39 38.0823 219.44 38.059L221.433 37.2484L221.523 37.2118H221.535H221.549L221.586 37.198H221.609L223.997 36.2271C224.098 36.1868 224.18 36.1083 224.223 36.0088C224.266 35.9092 224.268 35.7967 224.228 35.6959C224.197 35.6211 224.145 35.5572 224.077 35.5123C224.01 35.4674 223.93 35.4436 223.849 35.444L223.846 35.421ZM214.708 39.1307C214.654 39.1315 214.601 39.1423 214.551 39.1628L209.99 41.0176C209.894 41.0619 209.819 41.1411 209.78 41.2387C209.742 41.3363 209.743 41.4449 209.783 41.5419C209.823 41.6389 209.899 41.7169 209.996 41.7595C210.093 41.8022 210.202 41.8063 210.302 41.771L214.863 39.9162C214.952 39.8807 215.025 39.8158 215.07 39.7326C215.116 39.6494 215.131 39.5531 215.113 39.4602C215.094 39.3673 215.044 39.2837 214.97 39.2235C214.896 39.1634 214.804 39.1306 214.708 39.1307ZM205.584 42.8427C205.531 42.8424 205.478 42.8525 205.429 42.8725L200.865 44.7296C200.778 44.7661 200.706 44.8313 200.662 44.9142C200.617 44.9971 200.603 45.0926 200.622 45.1847C200.64 45.2767 200.69 45.3596 200.763 45.4194C200.836 45.4791 200.928 45.5121 201.023 45.5128C201.075 45.5129 201.127 45.5028 201.175 45.483L203.24 44.6426H203.251H203.263L205.722 43.6419C205.81 43.6054 205.882 43.5402 205.926 43.4573C205.97 43.3744 205.984 43.2789 205.966 43.1868C205.948 43.0948 205.898 43.0119 205.825 42.9521C205.752 42.8923 205.66 42.8594 205.565 42.8587L205.584 42.8427ZM196.459 46.5547C196.406 46.5546 196.353 46.5647 196.304 46.5844L191.741 48.4393C191.689 48.4578 191.64 48.4867 191.6 48.5242C191.559 48.5616 191.526 48.6069 191.503 48.6572C191.481 48.7076 191.469 48.762 191.468 48.8171C191.467 48.8722 191.478 48.9269 191.499 48.9779C191.52 49.0289 191.551 49.0751 191.591 49.1137C191.63 49.1523 191.678 49.1826 191.729 49.2027C191.781 49.2228 191.837 49.2323 191.892 49.2305C191.948 49.2288 192.003 49.2159 192.053 49.1927L196.619 47.3355C196.707 47.3 196.78 47.235 196.825 47.1517C196.87 47.0685 196.885 46.9722 196.866 46.8796C196.847 46.7869 196.796 46.7038 196.722 46.6445C196.647 46.5851 196.555 46.5534 196.459 46.5547ZM187.335 50.2644C187.281 50.2651 187.229 50.276 187.18 50.2964L182.616 52.1513C182.52 52.1955 182.445 52.2747 182.407 52.3723C182.368 52.47 182.369 52.5786 182.409 52.6755C182.45 52.7725 182.526 52.8505 182.623 52.8931C182.719 52.9358 182.829 52.9399 182.929 52.9047L186.153 51.5925L186.244 51.5559L187.49 51.0475C187.577 51.0111 187.649 50.9459 187.693 50.863C187.738 50.78 187.752 50.6845 187.733 50.5925C187.715 50.5004 187.665 50.4175 187.592 50.3578C187.519 50.298 187.427 50.265 187.332 50.2644H187.335ZM178.213 53.9832C178.159 53.9831 178.107 53.9932 178.058 54.013L173.494 55.8701C173.407 55.9066 173.335 55.9718 173.291 56.0547C173.246 56.1376 173.232 56.2331 173.251 56.3251C173.269 56.4172 173.319 56.5001 173.392 56.5599C173.465 56.6196 173.557 56.6526 173.651 56.6533C173.705 56.6536 173.757 56.6434 173.806 56.6235L178.37 54.7664C178.457 54.7299 178.529 54.6647 178.573 54.5818C178.618 54.4989 178.632 54.4034 178.613 54.3113C178.595 54.2193 178.545 54.1364 178.472 54.0766C178.399 54.0168 178.307 53.9838 178.213 53.9832ZM169.088 57.6952C169.035 57.695 168.982 57.7052 168.933 57.7249L164.372 59.5798C164.284 59.6153 164.21 59.6802 164.165 59.7634C164.119 59.8466 164.104 59.9429 164.123 60.0358C164.141 60.1286 164.191 60.2123 164.265 60.2724C164.339 60.3325 164.431 60.3653 164.527 60.3652C164.579 60.3653 164.631 60.3552 164.68 60.3355L167.333 59.2546H167.347L169.245 58.4829C169.333 58.4464 169.404 58.3812 169.449 58.2983C169.493 58.2154 169.507 58.1199 169.489 58.0279C169.47 57.9358 169.421 57.8529 169.347 57.7931C169.274 57.7334 169.183 57.7004 169.088 57.6997V57.6952ZM159.966 61.4049C159.912 61.4053 159.859 61.4162 159.809 61.4369L155.248 63.2918C155.161 63.3281 155.089 63.3931 155.044 63.4758C155 63.5585 154.986 63.6538 155.004 63.7457C155.022 63.8376 155.072 63.9205 155.144 63.9805C155.217 64.0404 155.308 64.0738 155.403 64.0749C155.455 64.0752 155.507 64.0651 155.555 64.0451L160.123 62.188C160.21 62.1515 160.282 62.0864 160.327 62.0034C160.371 61.9205 160.385 61.825 160.367 61.733C160.348 61.6409 160.298 61.558 160.225 61.4983C160.152 61.4385 160.061 61.4055 159.966 61.4049ZM150.841 65.1168C150.788 65.1165 150.734 65.1266 150.684 65.1466L146.123 67.0037C146.036 67.0401 145.964 67.1051 145.92 67.1878C145.875 67.2705 145.861 67.3657 145.879 67.4576C145.897 67.5496 145.947 67.6325 146.02 67.6924C146.092 67.7524 146.184 67.7857 146.278 67.7869C146.331 67.7872 146.384 67.7771 146.433 67.7571L150.8 65.9801L150.992 65.9023C151.079 65.8659 151.151 65.8009 151.195 65.7182C151.24 65.6355 151.254 65.5402 151.236 65.4483C151.217 65.3564 151.168 65.2735 151.095 65.2136C151.023 65.1536 150.931 65.1203 150.837 65.1191L150.841 65.1168ZM141.717 68.8288C141.663 68.8285 141.61 68.8386 141.56 68.8586L136.999 70.6997C136.946 70.7182 136.898 70.7471 136.857 70.7846C136.817 70.822 136.784 70.8673 136.761 70.9176C136.739 70.968 136.727 71.0223 136.726 71.0774C136.725 71.1326 136.735 71.1873 136.757 71.2382C136.778 71.2892 136.809 71.3354 136.849 71.3741C136.888 71.4127 136.935 71.443 136.987 71.4631C137.039 71.4832 137.094 71.4926 137.15 71.4909C137.206 71.4892 137.26 71.4763 137.311 71.4531L141.872 69.5982C141.959 69.5618 142.031 69.4968 142.075 69.4142C142.12 69.3315 142.134 69.2362 142.116 69.1443C142.098 69.0524 142.048 68.9695 141.975 68.9095C141.903 68.8496 141.812 68.8162 141.717 68.8151V68.8288ZM132.593 72.5316C132.539 72.5323 132.485 72.5432 132.435 72.5637L127.874 74.4185C127.787 74.455 127.715 74.5202 127.671 74.6031C127.626 74.686 127.612 74.7815 127.631 74.8736C127.649 74.9656 127.699 75.0485 127.772 75.1083C127.845 75.1681 127.937 75.201 128.031 75.2017C128.083 75.2017 128.134 75.1924 128.182 75.1742L130.413 74.2582H130.431L132.743 73.3193C132.832 73.2838 132.905 73.2187 132.951 73.1352C132.996 73.0518 133.011 72.9553 132.992 72.8622C132.973 72.7692 132.923 72.6855 132.849 72.6256C132.774 72.5657 132.681 72.5332 132.586 72.5339L132.593 72.5316ZM123.468 76.2436C123.415 76.2434 123.362 76.2536 123.313 76.2733L118.75 78.1305C118.663 78.1669 118.591 78.2321 118.546 78.315C118.502 78.3979 118.488 78.4935 118.506 78.5855C118.525 78.6776 118.575 78.7605 118.648 78.8202C118.721 78.88 118.812 78.913 118.907 78.9136C118.959 78.9137 119.011 78.9036 119.06 78.8839L123.625 77.0267C123.713 76.9902 123.785 76.9248 123.829 76.8417C123.873 76.7585 123.887 76.6627 123.869 76.5706C123.85 76.4784 123.8 76.3955 123.726 76.3359C123.653 76.2763 123.561 76.2437 123.466 76.2436H123.468ZM114.344 79.9556C114.291 79.9554 114.238 79.9655 114.189 79.9853L109.625 81.8402C109.575 81.8598 109.529 81.8892 109.49 81.9267C109.451 81.9641 109.42 82.0087 109.398 82.0581C109.377 82.1075 109.365 82.1606 109.365 82.2144C109.364 82.2681 109.374 82.3215 109.394 82.3714C109.425 82.4464 109.478 82.5106 109.546 82.5558C109.614 82.6011 109.694 82.6253 109.776 82.6256C109.829 82.6249 109.881 82.614 109.931 82.5935L114.494 80.7387C114.544 80.719 114.59 80.6896 114.629 80.6522C114.668 80.6148 114.7 80.5701 114.721 80.5207C114.743 80.4714 114.754 80.4183 114.755 80.3645C114.755 80.3107 114.745 80.2573 114.725 80.2074C114.694 80.1329 114.641 80.0692 114.573 80.0244C114.505 79.9796 114.425 79.9556 114.344 79.9556ZM105.219 83.6652C105.166 83.6659 105.113 83.6768 105.064 83.6973L100.501 85.5521C100.399 85.5924 100.318 85.6709 100.275 85.7705C100.231 85.87 100.229 85.9826 100.27 86.0834C100.301 86.158 100.354 86.2216 100.422 86.2664C100.49 86.3113 100.57 86.3352 100.651 86.3353C100.704 86.3354 100.757 86.3253 100.806 86.3055L105.369 84.4507C105.42 84.431 105.466 84.4016 105.505 84.3642C105.544 84.3268 105.575 84.2821 105.597 84.2327C105.618 84.1833 105.63 84.1302 105.63 84.0764C105.631 84.0227 105.621 83.9693 105.601 83.9194C105.57 83.8442 105.517 83.7799 105.449 83.7346C105.381 83.6894 105.301 83.6652 105.219 83.6652ZM96.0947 87.3772C96.0416 87.3771 95.989 87.3872 95.9398 87.407L91.3764 89.2641C91.3257 89.2835 91.2794 89.3128 91.2402 89.3502C91.2011 89.3875 91.1698 89.4322 91.1483 89.4817C91.1268 89.5311 91.1154 89.5844 91.1149 89.6382C91.1144 89.6921 91.1247 89.7455 91.1453 89.7954C91.1763 89.8697 91.2288 89.9333 91.2963 89.9781C91.3638 90.023 91.4431 90.047 91.5244 90.0472C91.5767 90.0474 91.6286 90.0373 91.677 90.0175L93.5264 89.2641H93.5425L96.2288 88.1718C96.2793 88.1521 96.3254 88.1227 96.3644 88.0853C96.4034 88.0479 96.4345 88.0032 96.456 87.9538C96.4775 87.9044 96.4889 87.8513 96.4896 87.7976C96.4903 87.7438 96.4802 87.6904 96.46 87.6405C96.4285 87.566 96.3755 87.5023 96.3077 87.4575C96.2398 87.4127 96.1601 87.3887 96.0785 87.3886L96.0947 87.3772ZM86.9725 91.08C86.9187 91.0797 86.8653 91.0898 86.8153 91.1098L82.2543 92.9646C82.2038 92.9843 82.1577 93.0137 82.1187 93.0511C82.0797 93.0885 82.0485 93.1332 82.027 93.1826C82.0056 93.232 81.9941 93.2851 81.9935 93.3389C81.9928 93.3926 82.0029 93.446 82.0231 93.4959C82.0535 93.5709 82.1059 93.6351 82.1734 93.6804C82.241 93.7257 82.3206 93.75 82.4022 93.7501C82.4552 93.749 82.5076 93.7389 82.5571 93.7203L87.1251 91.8609C87.2266 91.8211 87.3079 91.743 87.3513 91.6438C87.3947 91.5446 87.3965 91.4324 87.3563 91.3319C87.3255 91.2573 87.273 91.1936 87.2055 91.1487C87.138 91.1039 87.0585 91.0799 86.9772 91.08H86.9725ZM77.8481 94.7897C77.7941 94.7902 77.7407 94.801 77.6909 94.8217L73.1298 96.6766C73.0791 96.696 73.0328 96.7253 72.9936 96.7626C72.9545 96.8 72.9232 96.8447 72.9017 96.8942C72.8802 96.9436 72.8688 96.9968 72.8683 97.0507C72.8678 97.1046 72.8781 97.158 72.8986 97.2079C72.9292 97.2826 72.9816 97.3465 73.0492 97.3914C73.1168 97.4363 73.1964 97.4601 73.2778 97.4597C73.3316 97.46 73.385 97.4499 73.435 97.43L74.7342 96.901H74.7503H74.7758H74.7966H74.8174L74.8497 96.8873H74.8706L77.9845 95.6209C78.0859 95.5811 78.1673 95.5031 78.2107 95.4039C78.254 95.3047 78.2558 95.1925 78.2157 95.092C78.1852 95.017 78.1329 94.9527 78.0653 94.9074C77.9978 94.8622 77.9181 94.8379 77.8365 94.8378L77.8481 94.7897ZM68.7236 98.5017C68.6698 98.5014 68.6164 98.5115 68.5664 98.5314L65.5796 99.7474C65.0456 99.9649 64.5093 100.205 63.9869 100.434C63.8879 100.48 63.8111 100.562 63.7734 100.663C63.7357 100.765 63.7401 100.877 63.7857 100.975C63.8196 101.044 63.8729 101.103 63.9393 101.143C64.0056 101.184 64.0823 101.205 64.1602 101.204C64.2185 101.204 64.2761 101.191 64.329 101.167C64.5602 101.057 64.8121 100.938 65.0549 100.842H65.078L65.1173 100.824H65.1289H65.1473H65.1658H65.1866H65.2051H65.219L65.2468 100.812H65.2722L65.3045 100.798L65.3323 100.785L65.367 100.771L65.4016 100.755L65.7368 100.615L65.8085 100.585L65.8432 100.572L65.9703 100.519L66.0374 100.492L66.116 100.46L66.2038 100.423L66.2524 100.402H66.2778H66.2893H66.3055H66.324H66.3471L66.3934 100.384H66.4165L66.4558 100.368H66.4812H66.4951H66.5159H66.5321H66.5436H66.5575L66.5922 100.354L66.6222 100.343H66.6407H66.6523L66.7078 100.32H66.7309L66.7818 100.297L66.8904 100.253L68.7097 99.5138C68.7605 99.4944 68.8068 99.4651 68.8459 99.4278C68.8851 99.3904 68.9164 99.3457 68.9379 99.2962C68.9594 99.2468 68.9708 99.1936 68.9713 99.1397C68.9718 99.0858 68.9615 99.0324 68.9409 98.9825C68.9099 98.9082 68.8573 98.8446 68.7899 98.7997C68.7224 98.7549 68.643 98.7309 68.5618 98.7307L68.7236 98.5017ZM59.7795 102.759C59.7026 102.759 59.6274 102.78 59.5622 102.82C58.1399 103.705 56.7762 104.679 55.4796 105.736C55.3955 105.804 55.3422 105.903 55.3314 106.01C55.3205 106.117 55.3531 106.224 55.4218 106.308C55.4605 106.355 55.5093 106.392 55.5644 106.418C55.6196 106.444 55.6799 106.457 55.7409 106.457C55.8352 106.457 55.9267 106.424 55.9998 106.365C57.2589 105.337 58.5832 104.391 59.9644 103.53L59.9968 103.512C60.0891 103.454 60.1545 103.362 60.1787 103.257C60.203 103.151 60.1841 103.04 60.1262 102.949C60.0887 102.891 60.0371 102.843 59.9761 102.81C59.9152 102.776 59.8467 102.759 59.7772 102.759H59.7795ZM52.1045 109.017C52.0486 109.017 51.9932 109.028 51.942 109.051C51.8907 109.073 51.8445 109.105 51.8063 109.145C50.6568 110.359 49.5859 111.643 48.5999 112.99C48.5363 113.078 48.5104 113.186 48.5277 113.293C48.545 113.399 48.6042 113.495 48.6923 113.558C48.7596 113.607 48.8402 113.634 48.9235 113.636C48.9878 113.636 49.0514 113.621 49.1088 113.593C49.1663 113.564 49.2161 113.522 49.2541 113.471C49.4668 113.182 49.6794 112.896 49.8991 112.614L49.9199 112.585L49.943 112.557L49.9638 112.532L49.9823 112.507L49.9985 112.486L50.0146 112.468L50.0308 112.445V112.434L50.0447 112.418L50.0563 112.402V112.388L50.0701 112.374L50.0817 112.358L50.0933 112.344L50.1117 112.321L50.1349 112.289C50.8284 111.419 51.5612 110.574 52.331 109.77C52.4053 109.692 52.445 109.587 52.4415 109.479C52.4381 109.372 52.3917 109.27 52.3125 109.196C52.2369 109.123 52.1357 109.083 52.0305 109.083L52.1045 109.017ZM46.2766 116.995C46.2026 116.995 46.1299 117.014 46.066 117.051C46.0022 117.088 45.9496 117.142 45.9136 117.206C45.1114 118.667 44.4019 120.177 43.7891 121.726C43.7497 121.826 43.7519 121.938 43.7952 122.037C43.8385 122.135 43.9194 122.213 44.0203 122.253C44.0679 122.272 44.119 122.282 44.1706 122.283C44.2533 122.282 44.3341 122.258 44.4025 122.211C44.4709 122.165 44.5238 122.1 44.5543 122.024C44.6098 121.882 44.6653 121.74 44.7231 121.598L44.7369 121.564L44.7508 121.531L44.7647 121.502L44.7762 121.472V121.444V121.419L44.7878 121.392V121.367V121.353V121.335V121.321L44.7993 121.298V121.284V121.266V121.245V121.231V121.206V121.188C44.8018 121.178 44.8057 121.168 44.8109 121.158L44.8271 121.124L44.8548 121.062L44.871 121.021C45.1415 120.389 45.4305 119.766 45.7333 119.15L45.7818 119.049L45.798 119.013L45.8258 118.955L45.8419 118.928L45.8535 118.9V118.884V118.873L45.8651 118.848V118.832C45.8703 118.825 45.8742 118.817 45.8766 118.809V118.795L45.8882 118.777V118.761V118.742L45.8997 118.717V118.69L45.9113 118.667L45.9252 118.639L45.939 118.612L45.9529 118.584L45.9691 118.552L45.9853 118.522L46.0199 118.458L46.0384 118.426C46.1517 118.211 46.2696 117.998 46.3829 117.785C46.4342 117.69 46.4457 117.579 46.415 117.476C46.3843 117.373 46.3138 117.285 46.2188 117.233C46.158 117.202 46.0907 117.186 46.0223 117.185L46.2766 116.995ZM42.661 126.169C42.5693 126.169 42.4803 126.199 42.4082 126.255C42.3361 126.311 42.2851 126.389 42.2634 126.478C41.8563 128.092 41.5537 129.73 41.3572 131.383C41.3504 131.436 41.3543 131.491 41.3688 131.543C41.3833 131.595 41.4079 131.643 41.4415 131.686C41.475 131.728 41.5166 131.764 41.564 131.791C41.6115 131.817 41.6637 131.834 41.7178 131.841H41.7663C41.8668 131.841 41.9639 131.805 42.0393 131.739C42.1146 131.673 42.1631 131.582 42.1755 131.483C42.2102 131.19 42.2472 130.9 42.2888 130.606V130.57C42.2888 130.547 42.2888 130.522 42.3004 130.497V130.46C42.3004 130.435 42.3004 130.41 42.3119 130.387V130.352V130.318V130.284C42.3108 130.273 42.3108 130.262 42.3119 130.252V130.219C42.3108 130.209 42.3108 130.198 42.3119 130.187V130.158V130.128V130.098V130.068V130.018V129.995V129.984V129.956V129.903V129.883V129.869V129.844V129.789V129.771V129.755V129.732V129.697V129.674V129.642V129.617V129.587V129.56V129.546V129.519V129.505V129.487V129.452C42.3119 129.432 42.3119 129.411 42.3119 129.388V129.352C42.3119 129.329 42.3119 129.308 42.3235 129.287V129.244C42.4776 128.41 42.6564 127.586 42.8598 126.771C42.8857 126.666 42.8686 126.555 42.8123 126.462C42.7561 126.37 42.6651 126.303 42.5593 126.276C42.5262 126.273 42.4929 126.273 42.4599 126.276L42.661 126.169ZM41.5051 135.949C41.4511 135.949 41.3977 135.961 41.348 135.982C41.2983 136.003 41.2533 136.033 41.2155 136.071C41.1777 136.11 41.1479 136.155 41.1278 136.205C41.1077 136.254 41.0976 136.307 41.0982 136.361C41.1173 138.024 41.2439 139.685 41.4774 141.332C41.4908 141.43 41.5395 141.519 41.6143 141.583C41.6892 141.648 41.7851 141.683 41.8842 141.683C41.9027 141.685 41.9213 141.685 41.9397 141.683C41.9932 141.676 42.0448 141.658 42.0915 141.631C42.1381 141.605 42.179 141.569 42.2116 141.526C42.2443 141.484 42.2681 141.435 42.2818 141.383C42.2954 141.332 42.2986 141.278 42.2911 141.225V141.181V141.152V141.14V141.117V141.103V141.078V140.991V140.961V140.936V140.849V140.819V140.787V140.755V140.726V140.694V140.659V140.627V140.593V140.554V140.517C42.2898 140.493 42.2898 140.468 42.2911 140.444V140.407C42.2911 140.382 42.2911 140.357 42.2911 140.332L42.2772 140.217C42.1362 138.955 42.059 137.686 42.0461 136.416C42.0442 136.309 42.0001 136.207 41.9231 136.132C41.8461 136.057 41.7425 136.015 41.6346 136.015L41.5051 135.949ZM42.8783 145.702C42.8422 145.701 42.8063 145.707 42.7719 145.718C42.7198 145.731 42.6709 145.755 42.6281 145.788C42.5852 145.821 42.5494 145.861 42.5225 145.908C42.4956 145.954 42.4783 146.005 42.4715 146.058C42.4648 146.111 42.4686 146.165 42.483 146.217C42.9209 147.822 43.4614 149.397 44.1012 150.934C44.1317 151.009 44.1842 151.073 44.2517 151.118C44.3193 151.163 44.399 151.186 44.4803 151.186C44.5343 151.186 44.5877 151.175 44.6375 151.154C44.6884 151.135 44.7349 151.106 44.7743 151.068C44.8136 151.031 44.845 150.986 44.8666 150.937C44.8881 150.887 44.8994 150.834 44.8998 150.78C44.9002 150.726 44.8896 150.673 44.8687 150.623C44.2389 149.118 43.7069 147.574 43.2759 146.002C43.2517 145.915 43.1998 145.84 43.128 145.785C43.0562 145.731 42.9685 145.702 42.8783 145.702ZM46.688 154.797C46.6166 154.798 46.5464 154.817 46.4846 154.852C46.4377 154.879 46.3965 154.914 46.3635 154.957C46.3304 154.999 46.3061 155.047 46.2919 155.099C46.2778 155.151 46.274 155.205 46.2809 155.258C46.2878 155.311 46.3052 155.362 46.332 155.409C46.8869 156.366 47.4879 157.309 48.1283 158.221L47.9341 158.42C47.8966 158.458 47.8671 158.504 47.8474 158.553C47.8277 158.603 47.8181 158.656 47.8192 158.71C47.8203 158.763 47.832 158.816 47.8537 158.865C47.8754 158.914 47.9066 158.958 47.9456 158.995C48.022 159.068 48.1238 159.109 48.23 159.109C48.2852 159.109 48.3398 159.099 48.3907 159.077C48.4415 159.056 48.4875 159.025 48.5259 158.985L48.6415 158.866H48.653L48.6692 158.85L48.6877 158.832L48.7085 158.809L48.8056 158.713L48.8287 158.69L48.8518 158.667C48.875 158.642 48.8981 158.617 48.9235 158.594L48.942 158.576L48.9582 158.562L48.9721 158.548L48.9859 158.534L49.0044 158.516H49.016L49.0298 158.502L49.0437 158.489L49.0576 158.475H49.0691L49.083 158.461L49.1061 158.438L49.0876 158.413L49.0761 158.399V158.386V158.372V158.358V158.344V158.331V158.317V158.301L49.0645 158.285L49.053 158.269L49.0414 158.253L49.0275 158.234L49.0137 158.218L48.9975 158.198L48.9304 158.102L48.9143 158.081L48.9004 158.063L48.8865 158.042L48.8727 158.024V158.005L48.8611 157.987L48.8495 157.971L48.8357 157.95L48.8218 157.932L48.8102 157.914L48.7964 157.893L48.7802 157.87L48.6946 157.747L48.6831 157.728V157.71L48.6692 157.694L48.6577 157.678L48.6461 157.664V157.648V157.632L48.6345 157.616V157.6L48.623 157.584V157.568V157.552L48.5814 157.488L48.5698 157.472V157.456V157.444V157.431V157.417V157.403V157.389V157.376V157.362V157.348L48.5583 157.332V157.316V157.305V157.291V157.273L48.5467 157.254L48.5305 157.229C48.5143 157.202 48.4958 157.174 48.4773 157.147L48.4635 157.126L48.4496 157.105L48.438 157.087L48.4265 157.067L48.4126 157.046L48.4011 157.025L48.3872 157.005L48.3733 156.984L48.3594 156.961L48.3456 156.938C48.3109 156.883 48.2739 156.828 48.2392 156.771L48.223 156.744L48.2092 156.718L48.1953 156.693L48.1791 156.668L48.1629 156.643L48.1491 156.618L48.1329 156.59C48.0751 156.496 48.0196 156.402 47.9618 156.311L47.9456 156.286L47.9295 156.26L47.9133 156.235L47.8994 156.21L47.8832 156.183C47.8254 156.089 47.7699 155.995 47.7145 155.901L47.7006 155.878L47.6867 155.855L47.6752 155.832L47.6636 155.809L47.6497 155.789L47.6359 155.768L47.622 155.745L47.6081 155.72L47.5734 155.663C47.5382 155.6 47.4866 155.548 47.4239 155.511C47.3613 155.475 47.29 155.456 47.2174 155.457L46.688 154.797ZM45.0097 162.056C44.9455 162.056 44.8822 162.071 44.8248 162.1C44.7674 162.129 44.7175 162.17 44.6791 162.221C43.6769 163.556 42.7604 164.952 41.9351 166.4C41.8819 166.494 41.8686 166.606 41.8981 166.71C41.9275 166.813 41.9974 166.901 42.0923 166.954C42.1533 166.99 42.2228 167.008 42.2934 167.007C42.3664 167.007 42.438 166.987 42.5009 166.951C42.5638 166.914 42.6159 166.862 42.6517 166.799C43.4589 165.38 44.3561 164.013 45.338 162.707C45.3706 162.664 45.3943 162.615 45.4078 162.563C45.4212 162.511 45.4242 162.457 45.4165 162.404C45.4087 162.351 45.3904 162.3 45.3627 162.254C45.3349 162.208 45.2983 162.168 45.2548 162.136C45.1836 162.085 45.0979 162.057 45.0097 162.056ZM40.1296 170.637C40.0477 170.636 39.9675 170.66 39.8995 170.706C39.8314 170.751 39.7788 170.815 39.7482 170.891C39.1155 172.432 38.5835 174.011 38.1554 175.62C38.1414 175.671 38.1379 175.725 38.145 175.778C38.1521 175.831 38.1697 175.882 38.1968 175.928C38.2238 175.974 38.2599 176.015 38.3027 176.047C38.3456 176.079 38.3945 176.103 38.4467 176.116C38.4814 176.125 38.5171 176.13 38.553 176.13C38.6436 176.13 38.7317 176.101 38.8036 176.046C38.8755 175.991 38.9272 175.915 38.9506 175.828C39.1217 175.178 39.3136 174.534 39.5193 173.895L39.5309 173.865V173.838V173.808V173.778C39.5309 173.778 39.5309 173.758 39.5424 173.749L39.5979 173.586V173.559V173.533V173.508V173.483V173.46V173.437V173.414V173.391C39.6118 173.352 39.6234 173.314 39.6372 173.277V173.254V173.233V173.217V173.199V173.183V173.165V173.149V173.13V173.114V173.096V173.08V173.062V173.048V173.027V173.014V172.993V172.982L39.6557 172.929V172.906V172.885V172.869V172.851V172.837V172.817V172.803V172.782V172.769V172.748V172.734V172.714V172.7V172.679V172.666V172.645C39.6544 172.637 39.6544 172.63 39.6557 172.622C39.6557 172.592 39.6765 172.562 39.6881 172.535V172.51V172.485V172.462V172.439V172.418V172.404V172.384V172.372V172.35V172.324C39.7112 172.262 39.7366 172.198 39.7597 172.134V172.104L39.7713 172.075L39.7829 172.047L39.7967 172.017C39.873 171.823 39.9516 171.626 40.0279 171.431C40.0481 171.382 40.0581 171.328 40.0574 171.275C40.0567 171.221 40.0453 171.168 40.0238 171.119C40.0023 171.07 39.9712 171.025 39.9322 170.988C39.8932 170.951 39.8472 170.922 39.7967 170.902C39.7475 170.882 39.6949 170.872 39.6418 170.872L40.1296 170.637ZM37.5867 180.158C37.4868 180.158 37.3903 180.194 37.3154 180.259C37.2405 180.325 37.1922 180.415 37.1798 180.513C36.9617 182.163 36.8521 183.825 36.8516 185.489C36.8513 185.543 36.8616 185.595 36.882 185.645C36.9025 185.694 36.9326 185.739 36.9706 185.777C37.0086 185.815 37.0538 185.845 37.1036 185.866C37.1534 185.886 37.2068 185.897 37.2607 185.897C37.3691 185.897 37.473 185.854 37.5501 185.779C37.6271 185.703 37.671 185.601 37.6722 185.494C37.6741 183.863 37.7815 182.234 37.9936 180.616C38.0007 180.563 37.9972 180.509 37.9833 180.457C37.9694 180.406 37.9454 180.357 37.9125 180.315C37.8797 180.272 37.8387 180.236 37.7919 180.209C37.7451 180.183 37.6935 180.165 37.6399 180.158H37.5867ZM37.5728 190.005H37.5197C37.4659 190.012 37.414 190.029 37.3669 190.056C37.3199 190.082 37.2786 190.118 37.2455 190.161C37.2124 190.203 37.1882 190.252 37.1741 190.304C37.1601 190.355 37.1565 190.41 37.1636 190.463C37.2099 190.827 37.2631 191.193 37.3185 191.555C37.5197 192.833 37.7809 194.115 38.1068 195.361C38.1298 195.448 38.1813 195.525 38.2533 195.58C38.3252 195.635 38.4135 195.665 38.5045 195.666C38.539 195.67 38.574 195.67 38.6085 195.666C38.7139 195.638 38.804 195.57 38.859 195.477C38.914 195.384 38.9295 195.273 38.9021 195.169C38.8119 194.823 38.7287 194.482 38.6478 194.122V194.097V194.074V194.053V194.031V194.008V193.985L38.627 193.889V193.87V193.834V193.818V193.79V193.776V193.735V193.719V193.701V193.662V193.644V193.623L38.5923 193.451V193.426V193.398V193.373V193.346C38.486 192.831 38.3912 192.313 38.3057 191.789V191.761V191.736V191.713V191.69V191.667V191.644V191.624V191.601V191.573V191.537C38.3045 191.527 38.3045 191.517 38.3057 191.507C38.3066 191.497 38.3066 191.487 38.3057 191.477V191.445V191.411C38.2764 191.214 38.2486 191.017 38.2224 190.82V190.724C38.2224 190.657 38.2039 190.589 38.197 190.522C38.1836 190.425 38.135 190.335 38.0602 190.271C37.9854 190.206 37.8895 190.17 37.7901 190.17L37.5728 190.005ZM40.051 199.542C39.9987 199.542 39.9468 199.552 39.8984 199.572C39.7974 199.612 39.7164 199.691 39.6731 199.79C39.6299 199.889 39.6278 200.001 39.6673 200.101C40.2913 201.646 41.0132 203.151 41.8288 204.605C41.8648 204.669 41.9172 204.721 41.9806 204.758C42.044 204.795 42.116 204.814 42.1894 204.814C42.2592 204.814 42.3279 204.796 42.3882 204.761C42.4355 204.736 42.4773 204.701 42.511 204.659C42.5447 204.617 42.5697 204.57 42.5845 204.518C42.5994 204.467 42.6037 204.413 42.5974 204.36C42.5911 204.307 42.5742 204.256 42.5477 204.209C42.3813 203.904 42.2179 203.603 42.0576 203.307L42.0229 203.243L41.9721 203.144C41.9605 203.124 41.949 203.101 41.9397 203.08L41.905 203.016L41.8889 202.984L41.8727 202.952L41.8565 202.922L41.8403 202.89L41.8241 202.86C41.8126 202.84 41.8033 202.819 41.7918 202.796L41.7779 202.769L41.7617 202.737L41.7478 202.712L41.7317 202.682L41.7178 202.657V202.629L41.7039 202.599L41.6901 202.574L41.6762 202.547V202.535L41.6646 202.515L41.6508 202.485V202.462L41.6392 202.439L41.6276 202.416V202.405V202.384L41.6138 202.357L41.6022 202.338L41.5883 202.309V202.288V202.277V202.256V202.238V202.219V202.206V202.187L41.5768 202.16V202.146V202.13V202.116L41.5652 202.091V202.075V202.059V202.045V202.027V202.006V201.99V201.974V201.961V201.938V201.919V201.903V201.89V201.874V201.853V201.832V201.819V201.803V201.786L41.5537 201.761V201.748V201.732V201.718L41.5398 201.688V201.67V201.654V201.635L41.5282 201.61V201.592L41.5144 201.56V201.541L41.4982 201.509V201.489L41.4704 201.425V201.404L41.4496 201.361V201.34C41.4496 201.317 41.4288 201.294 41.4196 201.274L41.3895 201.203C41.3733 201.171 41.3595 201.138 41.3456 201.106C41.334 201.081 41.3248 201.056 41.3132 201.033C41.3017 201.01 41.2924 200.985 41.2809 200.96C41.1583 200.671 41.0358 200.383 40.9202 200.092C40.8895 200.017 40.8368 199.952 40.7689 199.906C40.701 199.861 40.6209 199.836 40.5388 199.835L40.051 199.542ZM44.8849 208.148C44.7972 208.147 44.7118 208.175 44.6422 208.228C44.5986 208.26 44.5618 208.299 44.5339 208.345C44.5059 208.391 44.4873 208.441 44.4791 208.494C44.4709 208.547 44.4734 208.601 44.4863 208.652C44.4992 208.704 44.5223 208.753 44.5543 208.796C45.5505 210.134 46.6315 211.407 47.7907 212.609C47.8288 212.649 47.8747 212.68 47.9256 212.702C47.9765 212.724 48.0313 212.735 48.0867 212.735C48.1926 212.736 48.2947 212.695 48.371 212.622C48.4102 212.585 48.4417 212.541 48.4636 212.492C48.4856 212.443 48.4975 212.39 48.4988 212.337C48.5001 212.283 48.4907 212.23 48.4712 212.18C48.4516 212.13 48.4223 212.084 48.3849 212.045C47.2466 210.87 46.1856 209.623 45.2085 208.313C45.1704 208.262 45.1206 208.22 45.0631 208.191C45.0057 208.163 44.9423 208.148 44.8779 208.148H44.8849ZM51.76 215.26C51.6988 215.26 51.6383 215.274 51.5831 215.3C51.5278 215.326 51.4793 215.364 51.441 215.412C51.4069 215.453 51.3815 215.501 51.3662 215.552C51.3508 215.604 51.3459 215.657 51.3517 215.711C51.3575 215.764 51.3739 215.815 51.4 215.862C51.426 215.909 51.4612 215.951 51.5034 215.984C52.8113 217.027 54.185 217.987 55.616 218.858C55.6806 218.897 55.7551 218.918 55.831 218.917C55.9009 218.917 55.9696 218.9 56.0307 218.866C56.0918 218.832 56.1432 218.784 56.1801 218.725C56.2371 218.634 56.2555 218.524 56.2313 218.419C56.207 218.315 56.1421 218.224 56.0506 218.166C55.4241 217.784 54.8138 217.385 54.2128 216.971L54.1504 216.93L54.088 216.889L54.0278 216.845L53.9677 216.802L53.9377 216.781L53.9076 216.758L53.8776 216.737L53.8452 216.715L53.8152 216.694L53.7574 216.65L53.6973 216.609L53.6372 216.566L53.5771 216.522L53.517 216.479L53.4568 216.435L53.3944 216.392C52.9321 216.057 52.4928 215.705 52.0513 215.363C51.9784 215.306 51.8879 215.274 51.7947 215.274L51.76 215.26ZM60.2187 220.433C60.1409 220.433 60.0644 220.454 59.9982 220.494C59.9319 220.535 59.8786 220.593 59.8442 220.662C59.7996 220.761 59.7963 220.873 59.8348 220.974C59.8734 221.074 59.9508 221.156 60.0499 221.2C61.5795 221.888 63.1516 222.478 64.7567 222.968C64.7958 222.979 64.8362 222.985 64.8769 222.984C64.9645 222.984 65.0498 222.956 65.1205 222.905C65.1911 222.853 65.2434 222.781 65.2699 222.698C65.3016 222.595 65.2907 222.483 65.2396 222.388C65.1884 222.293 65.1012 222.221 64.9971 222.19C64.7081 222.1 64.4191 222.009 64.1325 221.915L64.0585 221.89L63.9845 221.865L63.9106 221.839H63.8874L63.8181 221.814L63.7511 221.791L63.6863 221.768H63.6655L63.6262 221.755H63.6054L63.5615 221.739H63.5407L63.4991 221.725H63.4783L63.4112 221.7L63.3419 221.677L63.2702 221.652C62.3224 221.311 61.3915 220.935 60.4776 220.523C60.424 220.498 60.3656 220.486 60.3066 220.486L60.2187 220.433ZM69.7223 223.328C69.6254 223.328 69.5316 223.362 69.4576 223.424C69.3836 223.486 69.3341 223.572 69.3177 223.667C69.3029 223.771 69.3296 223.877 69.3921 223.963C69.4546 224.048 69.5481 224.106 69.6529 224.125C71.3082 224.406 72.9799 224.582 74.6579 224.651H74.6764C74.7824 224.651 74.8841 224.61 74.9603 224.537C75.0365 224.464 75.0814 224.365 75.0855 224.26C75.0899 224.152 75.051 224.047 74.9774 223.968C74.9037 223.888 74.8013 223.841 74.6926 223.836C74.204 223.818 73.7185 223.789 73.2361 223.749L72.8593 223.719H72.7784C71.772 223.628 70.7765 223.499 69.7916 223.332H69.7223V223.328ZM84.5683 223.076C84.5476 223.074 84.5267 223.074 84.5059 223.076L82.245 223.438H82.208H82.1734H82.1387H82.1017H82.0647H82.03H81.993H81.9121H81.8728H81.8335C81.1076 223.541 80.3818 223.623 79.6605 223.685C79.5527 223.695 79.4532 223.747 79.3838 223.829C79.3145 223.912 79.281 224.018 79.2906 224.125C79.2987 224.226 79.3451 224.321 79.4205 224.39C79.4959 224.459 79.5947 224.498 79.6975 224.498H79.7345C80.6245 224.422 81.5261 224.315 82.4115 224.18L84.6747 223.832C84.7812 223.815 84.877 223.758 84.9414 223.672C85.0058 223.587 85.0337 223.479 85.0191 223.374C85.0033 223.278 84.9537 223.191 84.8792 223.128C84.8047 223.065 84.7101 223.03 84.6123 223.03L84.5683 223.076ZM94.317 221.583H94.2546L93.2212 221.741H93.1888L89.3791 222.325C89.2725 222.341 89.1768 222.398 89.1123 222.484C89.0479 222.57 89.02 222.677 89.0346 222.783C89.05 222.879 89.0993 222.966 89.1739 223.03C89.2484 223.093 89.3433 223.128 89.4415 223.129H89.5039L94.3794 222.384C94.4855 222.367 94.5807 222.31 94.6446 222.224C94.7086 222.139 94.7362 222.032 94.7215 221.926C94.7071 221.83 94.6583 221.743 94.5841 221.679C94.5098 221.616 94.415 221.581 94.317 221.581V221.583ZM104.063 220.09H104.001L103.689 220.138H103.638L99.1277 220.825C99.0212 220.841 98.9254 220.899 98.861 220.984C98.7966 221.07 98.7687 221.177 98.7833 221.283C98.7982 221.379 98.8474 221.467 98.922 221.53C98.9967 221.594 99.0918 221.629 99.1901 221.629H99.2525L104.126 220.882C104.232 220.866 104.328 220.809 104.392 220.723C104.457 220.637 104.485 220.53 104.47 220.424C104.455 220.328 104.405 220.241 104.331 220.177C104.256 220.114 104.162 220.079 104.063 220.078V220.09ZM113.812 218.599C113.791 218.597 113.77 218.597 113.75 218.599L112.43 218.801H112.406L108.872 219.343C108.766 219.36 108.671 219.418 108.607 219.503C108.544 219.589 108.517 219.696 108.532 219.801C108.546 219.897 108.595 219.985 108.669 220.049C108.744 220.112 108.838 220.147 108.936 220.147H109.001L113.874 219.401C113.98 219.384 114.076 219.326 114.14 219.241C114.204 219.155 114.231 219.048 114.216 218.943C114.202 218.847 114.153 218.759 114.079 218.696C114.005 218.633 113.91 218.599 113.812 218.599ZM123.558 217.106H123.496L121.827 217.363H121.748L118.618 217.841C118.518 217.86 118.428 217.914 118.366 217.994C118.304 218.075 118.274 218.175 118.283 218.275C118.291 218.376 118.337 218.47 118.411 218.539C118.486 218.608 118.583 218.648 118.685 218.65C118.706 218.652 118.727 218.652 118.748 218.65L123.625 217.914C123.679 217.91 123.731 217.896 123.779 217.872C123.827 217.848 123.87 217.815 123.905 217.774C123.94 217.734 123.966 217.687 123.983 217.636C124 217.586 124.006 217.532 124.002 217.479C123.998 217.426 123.983 217.375 123.959 217.327C123.935 217.28 123.901 217.237 123.861 217.203C123.82 217.168 123.772 217.142 123.721 217.125C123.67 217.108 123.616 217.102 123.563 217.106H123.558ZM133.307 215.613H133.244L130.503 216.034H130.459L128.367 216.355C128.264 216.37 128.171 216.424 128.106 216.505C128.041 216.585 128.01 216.687 128.018 216.79C128.026 216.893 128.073 216.989 128.15 217.059C128.227 217.128 128.327 217.166 128.431 217.166H128.496L133.369 216.419C133.472 216.404 133.565 216.35 133.63 216.27C133.694 216.189 133.726 216.088 133.718 215.985C133.71 215.882 133.663 215.787 133.587 215.717C133.511 215.647 133.411 215.608 133.307 215.609V215.613ZM143.056 214.12H142.991L139.317 214.681H139.294H139.25L138.12 214.855C138.02 214.873 137.93 214.928 137.868 215.008C137.806 215.088 137.776 215.188 137.784 215.288C137.792 215.389 137.838 215.483 137.912 215.552C137.986 215.621 138.083 215.661 138.185 215.663H138.247L143.123 214.917C143.225 214.902 143.318 214.848 143.383 214.768C143.448 214.687 143.479 214.586 143.471 214.483C143.463 214.38 143.417 214.284 143.34 214.215C143.264 214.145 143.164 214.106 143.06 214.106L143.056 214.12ZM152.802 212.629C152.783 212.627 152.763 212.627 152.744 212.629L147.864 213.376C147.764 213.394 147.674 213.449 147.612 213.528C147.55 213.608 147.52 213.708 147.528 213.809C147.536 213.909 147.582 214.003 147.656 214.073C147.73 214.142 147.827 214.182 147.929 214.184C147.949 214.186 147.97 214.186 147.991 214.184L152.864 213.438C152.972 213.429 153.073 213.379 153.144 213.297C153.214 213.216 153.249 213.11 153.241 213.003C153.233 212.895 153.182 212.796 153.1 212.726C153.017 212.656 152.91 212.621 152.802 212.629ZM162.55 211.136H162.49L158.516 211.759H158.5L157.62 211.894C157.517 211.91 157.424 211.963 157.359 212.043C157.294 212.124 157.263 212.226 157.271 212.328C157.279 212.431 157.325 212.527 157.402 212.597C157.478 212.666 157.578 212.705 157.682 212.705H157.747L162.62 211.961C162.723 211.945 162.816 211.892 162.88 211.811C162.945 211.731 162.977 211.629 162.969 211.527C162.961 211.424 162.914 211.328 162.838 211.258C162.761 211.188 162.661 211.15 162.557 211.15L162.55 211.136ZM172.297 209.643H172.237L169.167 210.12H169.139L167.375 210.39C167.272 210.405 167.179 210.458 167.115 210.539C167.05 210.619 167.018 210.721 167.026 210.824C167.034 210.926 167.081 211.022 167.157 211.092C167.234 211.162 167.334 211.201 167.438 211.2H167.5L172.373 210.454C172.476 210.439 172.569 210.385 172.634 210.305C172.698 210.224 172.73 210.122 172.722 210.02C172.714 209.917 172.667 209.821 172.591 209.752C172.515 209.682 172.415 209.643 172.311 209.643H172.297ZM182.045 208.152C182.025 208.15 182.005 208.15 181.985 208.152L179.491 208.533H179.459H179.435H179.41L177.098 208.885C176.998 208.903 176.909 208.958 176.847 209.037C176.785 209.117 176.755 209.217 176.762 209.317C176.77 209.418 176.815 209.512 176.889 209.581C176.962 209.651 177.059 209.691 177.161 209.694H177.225L182.099 208.947C182.207 208.939 182.307 208.888 182.378 208.807C182.449 208.725 182.484 208.619 182.475 208.512C182.467 208.405 182.416 208.305 182.334 208.235C182.251 208.165 182.144 208.131 182.036 208.139L182.045 208.152ZM191.794 206.659H191.732L190.321 206.875L186.854 207.406C186.8 207.41 186.748 207.425 186.7 207.449C186.652 207.473 186.609 207.506 186.574 207.546C186.54 207.587 186.513 207.633 186.496 207.684C186.479 207.735 186.473 207.788 186.477 207.841C186.481 207.894 186.496 207.946 186.52 207.993C186.544 208.041 186.578 208.083 186.619 208.118C186.659 208.152 186.707 208.179 186.758 208.195C186.809 208.212 186.863 208.218 186.916 208.214C186.937 208.217 186.958 208.217 186.979 208.214L191.854 207.468C191.954 207.45 192.044 207.395 192.106 207.316C192.168 207.236 192.198 207.136 192.19 207.036C192.182 206.935 192.137 206.841 192.064 206.772C191.99 206.702 191.893 206.662 191.792 206.659H191.794ZM201.54 205.166H201.478L196.605 205.913C196.504 205.931 196.414 205.986 196.352 206.067C196.29 206.148 196.261 206.248 196.27 206.349C196.279 206.45 196.326 206.544 196.401 206.613C196.476 206.682 196.574 206.72 196.676 206.721H196.739L201.612 205.975C201.715 205.959 201.808 205.906 201.873 205.826C201.937 205.745 201.969 205.643 201.961 205.541C201.953 205.438 201.906 205.342 201.83 205.272C201.754 205.203 201.654 205.164 201.55 205.164L201.54 205.166ZM211.289 203.673H211.227L210.586 203.77H210.547L206.356 204.411C206.256 204.429 206.166 204.484 206.104 204.564C206.042 204.644 206.012 204.744 206.02 204.845C206.029 204.946 206.075 205.04 206.149 205.109C206.223 205.178 206.321 205.217 206.423 205.219H206.488L211.361 204.473C211.463 204.457 211.556 204.404 211.621 204.323C211.686 204.243 211.717 204.141 211.71 204.039C211.702 203.936 211.655 203.84 211.579 203.77C211.502 203.7 211.402 203.662 211.298 203.662L211.289 203.673ZM221.035 202.183C221.015 202.18 220.994 202.18 220.973 202.183L218.638 202.544L216.095 202.934C215.995 202.952 215.905 203.007 215.843 203.087C215.781 203.167 215.752 203.267 215.76 203.368C215.768 203.469 215.814 203.563 215.888 203.632C215.963 203.701 216.06 203.74 216.162 203.742C216.183 203.744 216.204 203.744 216.225 203.742L221.098 202.996C221.206 202.987 221.306 202.937 221.377 202.855C221.448 202.774 221.483 202.668 221.475 202.56C221.466 202.453 221.415 202.354 221.333 202.284C221.251 202.214 221.144 202.179 221.035 202.187V202.183ZM230.784 200.69H230.722L228.091 201.093H228.049L225.844 201.429C225.738 201.447 225.643 201.504 225.58 201.59C225.517 201.675 225.489 201.782 225.504 201.887C225.518 201.983 225.567 202.071 225.642 202.134C225.716 202.197 225.811 202.231 225.909 202.231C225.93 202.233 225.952 202.233 225.973 202.231L230.846 201.487C230.949 201.471 231.042 201.418 231.107 201.337C231.172 201.257 231.203 201.155 231.195 201.052C231.187 200.95 231.141 200.854 231.064 200.784C230.988 200.714 230.888 200.676 230.784 200.676V200.69ZM240.533 199.197H240.468L236.383 199.824H236.36H236.325L235.606 199.934C235.504 199.949 235.411 200.003 235.346 200.083C235.281 200.164 235.25 200.265 235.258 200.368C235.265 200.471 235.312 200.566 235.388 200.636C235.465 200.706 235.565 200.745 235.669 200.745H235.731L240.607 199.998C240.709 199.983 240.802 199.929 240.867 199.849C240.932 199.768 240.963 199.667 240.955 199.564C240.948 199.461 240.901 199.366 240.824 199.296C240.748 199.226 240.648 199.187 240.544 199.187L240.533 199.197ZM250.279 197.706H250.221L245.341 198.455C245.241 198.473 245.151 198.527 245.089 198.607C245.027 198.687 244.997 198.787 245.005 198.888C245.014 198.988 245.059 199.082 245.133 199.152C245.207 199.221 245.304 199.261 245.406 199.263H245.468L250.341 198.516C250.45 198.508 250.55 198.458 250.621 198.376C250.691 198.295 250.726 198.189 250.718 198.081C250.71 197.974 250.659 197.875 250.577 197.805C250.494 197.735 250.387 197.7 250.279 197.708V197.706ZM260.028 196.213H259.967L255.344 196.918H255.321H255.305H255.277H255.212L255.08 196.939C254.98 196.957 254.891 197.011 254.829 197.091C254.767 197.171 254.737 197.27 254.744 197.371C254.752 197.471 254.797 197.565 254.871 197.635C254.944 197.704 255.041 197.744 255.143 197.747C255.164 197.749 255.186 197.749 255.208 197.747L260.081 197.001C260.181 196.982 260.27 196.928 260.332 196.848C260.394 196.769 260.424 196.669 260.417 196.569C260.409 196.468 260.364 196.374 260.29 196.305C260.217 196.235 260.12 196.195 260.018 196.192L260.028 196.213ZM269.774 194.72H269.714L266.822 195.164L266.725 195.178L264.841 195.466C264.738 195.482 264.645 195.535 264.58 195.615C264.516 195.696 264.484 195.798 264.492 195.9C264.5 196.003 264.547 196.099 264.623 196.169C264.699 196.238 264.799 196.277 264.903 196.277H264.965L269.839 195.53C269.941 195.515 270.034 195.462 270.099 195.381C270.164 195.301 270.195 195.199 270.187 195.096C270.18 194.994 270.133 194.898 270.057 194.828C269.98 194.758 269.88 194.72 269.776 194.72H269.774ZM279.523 193.227H279.46L277.918 193.456L277.819 193.472H277.791L274.582 193.978C274.48 193.993 274.387 194.047 274.322 194.127C274.257 194.208 274.226 194.309 274.234 194.412C274.241 194.514 274.288 194.61 274.365 194.68C274.441 194.75 274.541 194.789 274.645 194.788H274.71L279.583 194.042C279.685 194.027 279.778 193.973 279.843 193.893C279.908 193.812 279.939 193.711 279.931 193.608C279.924 193.505 279.877 193.41 279.801 193.34C279.724 193.27 279.624 193.231 279.52 193.231L279.523 193.227ZM289.271 191.736C289.25 191.734 289.23 191.734 289.209 191.736L288.127 191.901H288.106L284.333 192.48C284.225 192.488 284.125 192.539 284.054 192.62C283.983 192.702 283.948 192.808 283.956 192.915C283.965 193.023 284.016 193.122 284.098 193.192C284.18 193.262 284.288 193.297 284.396 193.289C284.416 193.291 284.437 193.291 284.458 193.289L289.334 192.542C289.434 192.524 289.523 192.47 289.585 192.39C289.647 192.31 289.677 192.21 289.67 192.11C289.662 192.01 289.617 191.916 289.543 191.846C289.47 191.777 289.373 191.737 289.271 191.734V191.736ZM299.018 190.243H298.955L298.604 190.298H298.548L294.082 190.985C293.979 191 293.887 191.053 293.822 191.134C293.757 191.214 293.725 191.315 293.733 191.418C293.741 191.52 293.787 191.616 293.863 191.686C293.939 191.756 294.038 191.795 294.142 191.796C294.164 191.798 294.185 191.798 294.207 191.796L299.08 191.051C299.183 191.036 299.276 190.983 299.34 190.902C299.405 190.822 299.437 190.72 299.429 190.617C299.421 190.515 299.374 190.419 299.298 190.349C299.221 190.279 299.121 190.24 299.018 190.241V190.243ZM308.766 188.75H308.701L307.458 188.942H307.437H307.388L303.844 189.487C303.744 189.506 303.655 189.56 303.593 189.64C303.531 189.72 303.501 189.82 303.509 189.92C303.517 190.021 303.562 190.115 303.636 190.184C303.71 190.254 303.807 190.293 303.909 190.296H303.972L308.847 189.549C308.95 189.534 309.043 189.48 309.107 189.4C309.172 189.319 309.204 189.218 309.196 189.115C309.188 189.013 309.141 188.917 309.065 188.847C308.989 188.777 308.889 188.738 308.785 188.738L308.766 188.75ZM318.512 187.259C318.492 187.257 318.471 187.257 318.45 187.259L316.832 187.509H316.804L313.582 188.003C313.481 188.022 313.391 188.076 313.329 188.157C313.268 188.237 313.238 188.337 313.246 188.438C313.255 188.538 313.3 188.632 313.375 188.701C313.449 188.771 313.547 188.81 313.649 188.812H313.711L318.584 188.065C318.692 188.057 318.793 188.007 318.864 187.925C318.934 187.843 318.969 187.737 318.961 187.63C318.953 187.523 318.902 187.423 318.819 187.353C318.737 187.283 318.63 187.249 318.522 187.257L318.512 187.259ZM328.261 185.766H328.199L325.515 186.176H325.501H325.48H325.427L323.328 186.497C323.222 186.514 323.128 186.572 323.064 186.657C323.001 186.743 322.973 186.85 322.988 186.955C323.002 187.051 323.051 187.138 323.126 187.201C323.2 187.264 323.295 187.299 323.393 187.298C323.414 187.3 323.436 187.3 323.457 187.298L328.33 186.57C328.439 186.562 328.539 186.511 328.61 186.43C328.681 186.348 328.716 186.242 328.707 186.135C328.699 186.028 328.648 185.928 328.566 185.858C328.483 185.788 328.376 185.753 328.268 185.762L328.261 185.766ZM338.017 184.28H337.952L334.329 184.836H334.304L333.076 185.024C332.974 185.04 332.88 185.093 332.816 185.174C332.751 185.255 332.719 185.357 332.728 185.459C332.736 185.562 332.783 185.658 332.86 185.728C332.937 185.797 333.037 185.836 333.141 185.835H333.204L338.079 185.088C338.182 185.073 338.275 185.02 338.34 184.939C338.404 184.859 338.436 184.757 338.428 184.654C338.42 184.552 338.373 184.456 338.297 184.386C338.221 184.316 338.121 184.277 338.017 184.278V184.28ZM347.763 182.787H347.705L342.825 183.536C342.725 183.554 342.635 183.608 342.573 183.688C342.511 183.768 342.481 183.868 342.49 183.969C342.498 184.069 342.543 184.163 342.617 184.233C342.691 184.302 342.788 184.342 342.89 184.344H342.952L347.825 183.598C347.928 183.582 348.021 183.529 348.086 183.448C348.151 183.368 348.182 183.266 348.174 183.164C348.166 183.061 348.12 182.965 348.043 182.895C347.967 182.825 347.867 182.787 347.763 182.787ZM357.359 180.236C357.306 180.237 357.254 180.247 357.204 180.266C356.686 180.476 356.162 180.678 355.63 180.866L355.521 180.905L355.415 180.944L355.343 180.969H355.309L355.237 180.992H355.205L355.135 181.015L355.064 181.04H355.029H354.994H354.959H354.929L354.86 181.063H354.828L354.758 181.086H354.728H354.691H354.659H354.627H354.592H354.562L354.493 181.108H354.465L354.398 181.131H354.37L354.303 181.152H354.273H354.238H354.206H354.176H354.143H354.116H354.083H354.049H354.023H353.991H353.958H353.933H353.901H353.875H353.852H353.82H353.808H353.785H353.76H353.727H353.716H353.695H353.681H353.658H353.639H353.619H353.602H353.584H353.57H353.545H353.526H353.508H353.492H353.475H353.459H353.436H353.411H353.182H353.163H353.152H353.112H353.092H353.071H353.059H353.02H352.999H352.978H352.937H352.914L352.837 181.175H352.812L352.731 181.198L352.604 181.232C352.506 181.256 352.42 181.314 352.362 181.397C352.305 181.479 352.281 181.58 352.294 181.679C352.307 181.778 352.357 181.869 352.434 181.934C352.511 181.999 352.609 182.034 352.71 182.031C352.746 182.031 352.782 182.026 352.816 182.018C354.439 181.584 356.032 181.049 357.586 180.415C357.674 180.379 357.747 180.314 357.793 180.231C357.839 180.148 357.853 180.052 357.835 179.959C357.817 179.866 357.766 179.782 357.693 179.722C357.619 179.662 357.526 179.629 357.431 179.629L357.359 180.236ZM365.998 175.365C365.909 175.366 365.822 175.395 365.751 175.448L365.644 175.528L365.582 175.574L365.563 175.587L365.536 175.608H365.524H365.51H365.496H365.483L365.466 175.622L365.45 175.633L365.432 175.647L365.413 175.661L365.388 175.679L365.365 175.695L365.309 175.734L365.284 175.75L365.254 175.773L365.226 175.794L365.166 175.837C364.636 176.217 364.098 176.581 363.548 176.934C362.942 177.322 362.325 177.693 361.698 178.047C361.619 178.091 361.557 178.16 361.522 178.244C361.487 178.327 361.481 178.419 361.505 178.506C361.529 178.593 361.581 178.669 361.654 178.723C361.727 178.778 361.815 178.806 361.906 178.805C361.978 178.805 362.048 178.787 362.11 178.752C363.569 177.926 364.974 177.008 366.315 176.004C366.384 175.953 366.434 175.881 366.46 175.8C366.485 175.718 366.484 175.631 366.457 175.55C366.43 175.469 366.377 175.398 366.307 175.348C366.238 175.299 366.154 175.272 366.067 175.271L365.998 175.365ZM373.118 168.496C373.056 168.495 372.995 168.509 372.94 168.536C372.884 168.562 372.835 168.601 372.797 168.649C371.772 169.926 370.668 171.137 369.489 172.276C369.434 172.333 369.398 172.405 369.383 172.483C369.369 172.56 369.378 172.64 369.408 172.713C369.439 172.785 369.49 172.847 369.556 172.892C369.621 172.936 369.698 172.961 369.778 172.963C369.885 172.963 369.989 172.922 370.067 172.849C371.268 171.686 372.395 170.451 373.44 169.148C373.487 169.088 373.516 169.016 373.525 168.94C373.533 168.864 373.519 168.787 373.486 168.719C373.453 168.65 373.401 168.592 373.336 168.551C373.271 168.51 373.195 168.487 373.118 168.486V168.496ZM378.262 160.071C378.182 160.071 378.104 160.094 378.037 160.137C377.97 160.18 377.917 160.241 377.885 160.314C377.575 161.001 377.245 161.688 376.896 162.361L376.808 162.528L376.771 162.599L376.722 162.693L376.685 162.759L376.651 162.826V162.846L376.618 162.908V162.929L376.597 162.965V162.984L376.577 163.02L376.565 163.039V163.055V163.068L376.549 163.096V163.114L376.535 163.139V163.153V163.171V163.188C376.535 163.199 376.523 163.208 376.519 163.217V163.233V163.245L376.503 163.275V163.291V163.309L376.486 163.339V163.352V163.368V163.38L376.47 163.41V163.428V163.444V163.46L376.456 163.485V163.501V163.515L376.44 163.542V163.558V163.57V163.588L376.424 163.616V163.634L376.408 163.662V163.678V163.689L376.373 163.749L376.362 163.767L376.341 163.801V163.82L376.304 163.881V163.902L376.278 163.948V163.968L376.239 164.032C376.179 164.136 376.117 164.239 376.054 164.339C376.026 164.385 376.007 164.436 375.999 164.489C375.991 164.541 375.993 164.595 376.006 164.647C376.019 164.699 376.042 164.748 376.074 164.791C376.106 164.834 376.147 164.871 376.193 164.898C376.239 164.926 376.29 164.945 376.344 164.953C376.397 164.961 376.451 164.959 376.504 164.946C376.556 164.933 376.606 164.91 376.649 164.878C376.692 164.846 376.729 164.807 376.757 164.761C377.627 163.337 378.404 161.86 379.083 160.339C379.126 160.24 379.129 160.129 379.09 160.028C379.051 159.928 378.974 159.847 378.875 159.803C378.822 159.781 378.765 159.769 378.708 159.769L378.262 160.071ZM381.089 150.63C380.992 150.629 380.898 150.664 380.823 150.726C380.749 150.789 380.7 150.875 380.685 150.971C380.601 151.472 380.511 151.967 380.41 152.462C380.41 152.487 380.409 152.514 380.393 152.539V152.562C380.393 152.585 380.393 152.608 380.377 152.633V152.656C380.376 152.67 380.376 152.684 380.377 152.697V152.718V152.75V152.764V152.791V152.81V152.826V152.844V152.858V152.887V152.91V152.936V152.968V152.993V153.027V153.061V153.091V153.126V153.16C380.377 153.185 380.377 153.208 380.361 153.231V153.265C380.178 154.058 379.97 154.845 379.737 155.622C379.713 155.723 379.73 155.829 379.783 155.919C379.836 156.008 379.921 156.075 380.022 156.104C380.123 156.133 380.231 156.123 380.324 156.076C380.418 156.029 380.49 155.948 380.525 155.851C381.003 154.255 381.377 152.631 381.646 150.989C381.66 150.884 381.633 150.777 381.569 150.692C381.505 150.606 381.41 150.549 381.304 150.531H381.239L381.089 150.63ZM381.415 140.783H381.385C381.331 140.788 381.279 140.803 381.231 140.828C381.183 140.853 381.14 140.887 381.106 140.928C381.071 140.97 381.045 141.017 381.029 141.069C381.013 141.12 381.008 141.174 381.013 141.227V141.284V141.355C381.012 141.367 381.012 141.378 381.013 141.39C381.048 141.761 381.075 142.132 381.098 142.507C381.098 142.521 381.098 142.532 381.098 142.546V143.233L381.112 143.648C381.112 143.684 381.112 143.723 381.112 143.76C381.134 144.523 381.134 145.279 381.112 146.027V146.082C381.109 146.19 381.149 146.295 381.224 146.373C381.298 146.452 381.401 146.499 381.51 146.503H381.524C381.631 146.503 381.733 146.462 381.81 146.389C381.887 146.315 381.932 146.215 381.935 146.109C381.975 144.909 381.956 143.689 381.884 142.484C381.857 142.026 381.822 141.568 381.778 141.126C381.769 141.026 381.722 140.932 381.647 140.863C381.572 140.794 381.473 140.756 381.371 140.755L381.415 140.783ZM379.233 131.165C379.185 131.164 379.137 131.173 379.092 131.19C378.99 131.227 378.906 131.302 378.86 131.4C378.814 131.497 378.808 131.609 378.844 131.71C378.907 131.877 378.967 132.042 379.025 132.212L379.05 132.283V132.315L379.073 132.383V132.415L379.085 132.45C379.084 132.46 379.084 132.47 379.085 132.48C379.085 132.502 379.099 132.523 379.108 132.546V132.571V132.603C379.108 132.603 379.108 132.624 379.108 132.633V132.658V132.688V132.711V132.725V132.747C379.109 132.757 379.109 132.767 379.108 132.777V132.798V132.812V132.832V132.853V132.871V132.887V132.903V132.919V132.942V132.963V132.979V132.995V133.009V133.041V133.054V133.073V133.091V133.128V133.148L379.131 133.219V133.242L379.154 133.315V133.341C379.154 133.368 379.17 133.393 379.177 133.418C379.177 133.455 379.2 133.489 379.21 133.524C379.486 134.42 379.728 135.327 379.936 136.247C379.956 136.337 380.007 136.418 380.08 136.476C380.153 136.534 380.244 136.565 380.338 136.565C380.368 136.568 380.398 136.568 380.428 136.565C380.534 136.541 380.627 136.476 380.685 136.384C380.743 136.293 380.762 136.182 380.738 136.077C380.368 134.455 379.896 132.857 379.323 131.293C379.294 131.215 379.241 131.148 379.172 131.1C379.103 131.052 379.021 131.026 378.937 131.025L379.233 131.165ZM374.663 122.42C374.588 122.42 374.514 122.44 374.45 122.478C374.386 122.516 374.334 122.571 374.299 122.637C374.264 122.702 374.248 122.776 374.253 122.85C374.257 122.924 374.282 122.996 374.325 123.057C375.035 124.073 375.697 125.125 376.308 126.212L376.348 126.283L376.362 126.306L376.401 126.375L376.436 126.441L376.447 126.462L376.47 126.501V126.519V126.53L376.482 126.549L376.498 126.581V126.594V126.611L376.512 126.636V126.652V126.668V126.684L376.526 126.711V126.723V126.741V126.764L376.542 126.794L376.553 126.817L376.57 126.849L376.584 126.876L376.616 126.94L376.632 126.972C376.646 126.994 376.658 127.016 376.669 127.039L376.722 127.142C376.756 127.21 376.808 127.267 376.872 127.308C376.937 127.348 377.011 127.37 377.088 127.371C377.153 127.371 377.218 127.356 377.277 127.327C377.374 127.277 377.446 127.191 377.479 127.088C377.512 126.985 377.502 126.874 377.453 126.778C376.68 125.301 375.813 123.874 374.859 122.505C374.821 122.451 374.77 122.406 374.711 122.376C374.652 122.346 374.586 122.33 374.519 122.331L374.663 122.42ZM368.016 115.092C367.931 115.09 367.847 115.114 367.776 115.161C367.705 115.208 367.651 115.277 367.621 115.356C367.591 115.435 367.587 115.522 367.61 115.603C367.632 115.685 367.68 115.758 367.746 115.811C368.262 116.252 368.766 116.71 369.258 117.185L369.311 117.236L369.336 117.258L369.387 117.307L369.408 117.329L369.431 117.352L369.447 117.368L369.468 117.391L369.484 117.405V117.416L369.503 117.435H369.517L369.53 117.449L369.579 117.497L369.595 117.513L369.63 117.547L369.648 117.565C370.172 118.081 370.682 118.611 371.176 119.155C371.215 119.197 371.262 119.231 371.314 119.254C371.367 119.277 371.424 119.289 371.482 119.29C371.583 119.29 371.682 119.252 371.757 119.184C371.838 119.112 371.887 119.011 371.893 118.904C371.899 118.796 371.862 118.69 371.789 118.609C370.665 117.373 369.464 116.209 368.192 115.122C368.117 115.058 368.022 115.023 367.924 115.023L368.016 115.092ZM359.724 109.663C359.631 109.663 359.541 109.694 359.469 109.751C359.396 109.807 359.345 109.887 359.324 109.976C359.302 110.065 359.312 110.159 359.351 110.242C359.39 110.326 359.456 110.393 359.539 110.434C359.692 110.508 359.842 110.581 360.001 110.663L360.034 110.679L360.066 110.696L360.096 110.712L360.126 110.728L360.159 110.744L360.184 110.757L360.214 110.773H360.235H360.246H360.267H360.293H360.307H360.32H360.337H360.355L360.378 110.787H360.397L360.434 110.805H360.454C360.476 110.819 360.498 110.831 360.522 110.842L360.619 110.892C361.435 111.323 362.237 111.783 363.018 112.266C363.041 112.278 363.062 112.291 363.083 112.305H363.101L363.134 112.326H363.148H363.162H363.175H363.196H363.21L363.231 112.34L363.254 112.356L363.284 112.376L363.312 112.392L363.377 112.434L363.698 112.642C363.766 112.687 363.847 112.71 363.929 112.708C364.018 112.709 364.104 112.681 364.175 112.629C364.247 112.577 364.299 112.504 364.325 112.42C364.351 112.336 364.349 112.247 364.319 112.164C364.29 112.081 364.234 112.011 364.16 111.962C362.759 111.046 361.3 110.218 359.793 109.484C359.737 109.456 359.676 109.442 359.613 109.443L359.724 109.663ZM350.311 106.487C350.209 106.487 350.112 106.525 350.037 106.593C349.962 106.66 349.915 106.753 349.905 106.853C349.894 106.953 349.922 107.053 349.981 107.134C350.041 107.215 350.128 107.272 350.227 107.293C351.103 107.468 351.969 107.674 352.826 107.909L352.934 107.938L353.006 107.959H353.038H353.073H353.105H353.133H353.166H353.191H353.216H353.249H353.27H353.283H353.309H353.325H353.346H353.362H353.376H353.394H353.429H353.45L353.519 107.98L353.623 108.009C354.047 108.135 354.466 108.268 354.881 108.41C354.924 108.424 354.969 108.43 355.015 108.431C355.112 108.43 355.205 108.395 355.279 108.333C355.352 108.27 355.401 108.184 355.417 108.089C355.433 107.995 355.414 107.898 355.365 107.815C355.315 107.733 355.238 107.67 355.147 107.638C353.558 107.103 351.936 106.669 350.292 106.338C350.264 106.334 350.236 106.334 350.209 106.338L350.311 106.487ZM340.432 105.621C340.329 105.626 340.231 105.671 340.158 105.745C340.086 105.819 340.045 105.917 340.043 106.02C340.041 106.123 340.078 106.223 340.147 106.3C340.217 106.377 340.313 106.425 340.416 106.434L343.84 106.551H344.166H344.254H344.677H344.732H344.792L345.338 106.587H345.368C345.472 106.584 345.572 106.542 345.646 106.469C345.72 106.396 345.764 106.298 345.767 106.195C345.771 106.091 345.735 105.99 345.667 105.912C345.598 105.834 345.502 105.785 345.398 105.774C344.89 105.738 344.372 105.71 343.858 105.692L340.439 105.578L340.432 105.621ZM330.575 105.284C330.466 105.283 330.361 105.324 330.282 105.399C330.204 105.474 330.159 105.577 330.157 105.685C330.155 105.793 330.197 105.898 330.272 105.975C330.348 106.053 330.452 106.098 330.561 106.1L334.415 106.23H334.494L335.492 106.265H335.506C335.61 106.259 335.708 106.214 335.78 106.14C335.852 106.066 335.893 105.967 335.894 105.864C335.896 105.761 335.859 105.662 335.789 105.585C335.72 105.509 335.624 105.461 335.52 105.452L330.589 105.284H330.575ZM320.718 104.95C320.609 104.948 320.503 104.989 320.425 105.065C320.346 105.14 320.301 105.243 320.299 105.351C320.298 105.459 320.339 105.563 320.415 105.641C320.491 105.719 320.595 105.763 320.704 105.765H321.046H321.092L325.637 105.921C325.746 105.923 325.852 105.882 325.93 105.806C326.009 105.731 326.054 105.628 326.056 105.52C326.058 105.412 326.016 105.308 325.94 105.23C325.864 105.152 325.76 105.108 325.651 105.106L320.723 104.939L320.718 104.95ZM310.861 104.616C310.757 104.621 310.659 104.665 310.587 104.739C310.514 104.813 310.473 104.912 310.471 105.015C310.469 105.118 310.506 105.218 310.575 105.294C310.645 105.371 310.741 105.419 310.844 105.429L312.925 105.5H312.99L315.764 105.596H315.778C315.887 105.598 315.992 105.556 316.071 105.481C316.149 105.406 316.194 105.303 316.196 105.195C316.198 105.087 316.156 104.983 316.081 104.905C316.005 104.827 315.901 104.782 315.792 104.781L310.863 104.613L310.861 104.616ZM301.003 104.281C300.9 104.287 300.802 104.332 300.73 104.406C300.658 104.48 300.617 104.579 300.615 104.682C300.613 104.784 300.651 104.884 300.72 104.961C300.79 105.037 300.886 105.085 300.989 105.094L305.918 105.262H305.932C306.036 105.256 306.133 105.211 306.205 105.137C306.278 105.063 306.319 104.964 306.32 104.861C306.322 104.758 306.284 104.659 306.215 104.582C306.146 104.506 306.049 104.458 305.946 104.449L301.017 104.281H301.003ZM291.146 103.947C291.042 103.953 290.945 103.997 290.872 104.072C290.8 104.146 290.759 104.244 290.758 104.347C290.756 104.45 290.794 104.55 290.863 104.626C290.932 104.703 291.029 104.751 291.132 104.76L293.613 104.845H293.714L296.061 104.925H296.082C296.171 104.903 296.251 104.853 296.308 104.781C296.365 104.709 296.396 104.62 296.396 104.529C296.396 104.437 296.365 104.349 296.308 104.277C296.251 104.205 296.171 104.154 296.082 104.133L291.153 103.965L291.146 103.947ZM281.286 103.617C281.177 103.616 281.072 103.657 280.993 103.732C280.915 103.807 280.87 103.91 280.868 104.018C280.866 104.126 280.908 104.231 280.984 104.308C281.059 104.386 281.163 104.431 281.273 104.433L286.206 104.6H286.217C286.321 104.594 286.419 104.549 286.491 104.475C286.563 104.401 286.604 104.303 286.606 104.2C286.607 104.097 286.57 103.997 286.5 103.92C286.431 103.844 286.335 103.796 286.231 103.787L281.303 103.617H281.286ZM271.429 103.283C271.32 103.281 271.214 103.322 271.136 103.397C271.057 103.472 271.012 103.575 271.01 103.683C271.007 103.791 271.049 103.895 271.124 103.973C271.2 104.051 271.304 104.096 271.413 104.098L274.335 104.197H274.418L276.344 104.263H276.36C276.469 104.265 276.575 104.224 276.653 104.149C276.732 104.073 276.777 103.97 276.779 103.862C276.78 103.754 276.739 103.65 276.663 103.572C276.587 103.494 276.483 103.45 276.374 103.448L271.445 103.281L271.429 103.283ZM263.308 103.008L261.477 103.752C261.504 103.755 261.531 103.755 261.558 103.752L266.077 103.906H266.276H266.487H266.491C266.6 103.908 266.706 103.867 266.784 103.791C266.863 103.716 266.908 103.613 266.91 103.505C266.911 103.397 266.87 103.293 266.794 103.215C266.718 103.137 266.614 103.092 266.505 103.091L263.299 102.983L263.308 103.008ZM270.648 100.054C270.595 100.055 270.542 100.066 270.493 100.086L265.929 101.941C265.834 101.985 265.758 102.065 265.72 102.162C265.681 102.26 265.682 102.368 265.722 102.465C265.763 102.562 265.839 102.64 265.936 102.683C266.032 102.726 266.142 102.73 266.242 102.695L270.805 100.84C270.894 100.804 270.967 100.739 271.013 100.656C271.058 100.572 271.073 100.476 271.054 100.383C271.036 100.29 270.985 100.206 270.911 100.146C270.836 100.086 270.743 100.054 270.648 100.054ZM279.772 96.3445C279.72 96.3448 279.668 96.3541 279.62 96.372L275.045 98.2291C274.992 98.2477 274.944 98.2766 274.903 98.314C274.863 98.3515 274.83 98.3968 274.807 98.4471C274.785 98.4975 274.773 98.5518 274.772 98.6069C274.771 98.662 274.781 98.7167 274.802 98.7677C274.824 98.8187 274.855 98.8649 274.895 98.9036C274.934 98.9422 274.981 98.9725 275.033 98.9926C275.085 99.0127 275.14 99.0221 275.196 99.0204C275.252 99.0187 275.306 99.0058 275.357 98.9825L279.92 97.1277C280.007 97.0912 280.079 97.026 280.124 96.9431C280.168 96.8602 280.182 96.7647 280.164 96.6727C280.145 96.5806 280.095 96.4977 280.022 96.4379C279.949 96.3782 279.858 96.3452 279.763 96.3445H279.772ZM288.897 92.6326C288.843 92.6323 288.789 92.6424 288.739 92.6624L284.178 94.5149C284.082 94.5591 284.007 94.6383 283.969 94.736C283.93 94.8336 283.931 94.9422 283.971 95.0392C284.012 95.1362 284.088 95.2141 284.185 95.2568C284.281 95.2994 284.391 95.3036 284.49 95.2683L289.052 93.4112C289.139 93.3748 289.211 93.3098 289.255 93.2271C289.299 93.1444 289.314 93.0491 289.296 92.9572C289.277 92.8653 289.228 92.7824 289.155 92.7225C289.083 92.6625 288.991 92.6291 288.897 92.628V92.6326ZM298.021 88.9206C297.967 88.9211 297.914 88.932 297.864 88.9527L296.278 89.5961H296.267L293.307 90.8098C293.213 90.8552 293.139 90.9348 293.102 91.0323C293.065 91.1297 293.066 91.2376 293.107 91.3338C293.148 91.43 293.224 91.5071 293.32 91.5493C293.416 91.5916 293.525 91.5957 293.624 91.5609L298.185 89.7061C298.274 89.6706 298.347 89.6056 298.393 89.5224C298.438 89.4392 298.453 89.343 298.435 89.2501C298.416 89.1572 298.366 89.0735 298.292 89.0134C298.219 88.9533 298.126 88.9205 298.03 88.9206H298.021ZM307.099 85.0094C307.032 85.0096 306.967 85.0261 306.908 85.0575C306.505 85.2705 306.096 85.4789 305.685 85.6781L305.659 85.6918H305.636H305.613H305.592H305.574H305.562H305.546H305.534H305.518H305.507H305.49H305.477H305.458H305.44H305.419L305.398 85.7033H305.373H305.347L305.319 85.717C304.684 86.0223 304.036 86.3063 303.375 86.5689L302.497 86.9261C302.408 86.9616 302.335 87.0265 302.289 87.1097C302.244 87.1929 302.229 87.2892 302.247 87.382C302.266 87.4749 302.316 87.5586 302.39 87.6187C302.463 87.6788 302.556 87.7117 302.652 87.7115C302.706 87.7111 302.759 87.7002 302.809 87.6795L303.687 87.3222C304.94 86.8116 306.177 86.2345 307.363 85.6071C307.444 85.5642 307.508 85.4958 307.545 85.4128C307.582 85.3296 307.59 85.2366 307.568 85.1484C307.546 85.0602 307.494 84.982 307.422 84.9261C307.35 84.8702 307.261 84.8399 307.169 84.84L307.099 85.0094ZM315.19 79.2846C315.087 79.2834 314.987 79.3219 314.911 79.3922L314.839 79.4586L314.816 79.4769L314.756 79.5319L314.74 79.5479L314.726 79.5617H314.714L314.691 79.5846H314.677H314.663V79.596L314.645 79.6121L314.62 79.6327L314.601 79.651L314.583 79.6693L314.557 79.6922L314.532 79.7151L314.509 79.7357L314.453 79.7861L314.425 79.809L314.342 79.8846L314.257 79.9601L314.229 79.9853L314.141 80.0609L313.94 80.2349L313.854 80.3082L313.766 80.3815L313.741 80.4044L313.683 80.4525L313.655 80.4753L313.572 80.5463L313.547 80.5669L313.491 80.6128L313.471 80.6311L313.445 80.6517L313.417 80.6746L313.397 80.6929L313.376 80.7089L313.348 80.7296L313.327 80.7479L313.311 80.7616L313.29 80.7776L313.267 80.7982H313.256L313.239 80.812H313.228L313.212 80.8257H313.2L313.177 80.844H313.163H313.149H313.135L313.121 80.8555H313.105L313.082 80.8738L313.068 80.8853H313.054L313.041 80.899L313.01 80.9219L312.994 80.9356L312.978 80.9494L312.96 80.9631L312.92 80.9952L312.904 81.0089L312.886 81.0249L312.844 81.057L312.826 81.0707L312.807 81.0845L312.745 81.1326L312.726 81.1486L312.708 81.1646L312.666 81.1967L312.648 81.2104L312.629 81.2242L312.569 81.27L312.55 81.2837L312.49 81.3272L312.472 81.3409L312.453 81.3547L312.421 81.3799L312.405 81.3936H312.393H312.377H312.366L312.342 81.4119L312.326 81.4234H312.312H312.298H312.285H312.271H312.257L312.231 81.4417L312.213 81.4554H312.201L312.183 81.4692L312.16 81.4852L312.132 81.5058L312.111 81.5196L312.086 81.5379L312.058 81.5608L312.03 81.5814L312.003 81.5997L311.499 81.9615C311.416 82.0267 311.363 82.1207 311.348 82.224C311.334 82.3273 311.36 82.4322 311.421 82.517C311.483 82.6018 311.574 82.6601 311.678 82.6799C311.781 82.6996 311.888 82.6794 311.977 82.6233C313.345 81.6575 314.649 80.6058 315.882 79.4746C315.942 79.4189 315.984 79.3465 316.002 79.2668C316.02 79.1872 316.014 79.1039 315.984 79.0279C315.953 78.9519 315.901 78.8866 315.833 78.8405C315.765 78.7944 315.684 78.7696 315.602 78.7694L315.19 79.2846ZM321.555 71.7278C321.486 71.728 321.418 71.7453 321.357 71.7781C321.297 71.8109 321.245 71.8582 321.208 71.9156C320.482 73.0469 319.695 74.1392 318.852 75.1879C318.836 75.2085 318.818 75.2291 318.801 75.252L318.785 75.2703L318.769 75.2887L318.741 75.323L318.727 75.3368V75.3482L318.714 75.3642L318.697 75.3848L318.684 75.4009L318.67 75.4192L318.651 75.4421L318.628 75.4696L318.607 75.4948L318.362 75.7902C318.328 75.8311 318.302 75.8784 318.286 75.9293C318.27 75.9802 318.265 76.0337 318.27 76.0867C318.275 76.1397 318.291 76.1912 318.316 76.2382C318.341 76.2852 318.376 76.3267 318.418 76.3604C318.49 76.4222 318.583 76.4563 318.679 76.4565C318.739 76.4566 318.799 76.4436 318.854 76.4182C318.909 76.3929 318.957 76.3559 318.996 76.31C320.07 75.0309 321.062 73.6856 321.964 72.282C322.003 72.2204 322.025 72.1496 322.027 72.0768C322.029 72.004 322.012 71.932 321.977 71.8682C321.941 71.8044 321.889 71.7511 321.826 71.7139C321.763 71.6768 321.691 71.6571 321.617 71.6569L321.555 71.7278ZM325.792 62.82C325.706 62.82 325.621 62.847 325.551 62.8971C325.481 62.9473 325.429 63.0181 325.401 63.0994C325.161 63.8368 324.897 64.568 324.609 65.2932L324.581 65.3641L324.567 65.3985L324.539 65.4672L324.528 65.4992L324.5 65.5679L324.486 65.6L324.474 65.6343L324.461 65.6687V65.6962L324.447 65.7259L324.433 65.758C324.432 65.7664 324.432 65.7748 324.433 65.7832V65.8107L324.419 65.8427L324.407 65.8679V65.8908L324.396 65.9206V65.9435V65.9549V65.9755V66.0053V66.0236V66.0397V66.0557V66.0717L324.384 66.0992V66.1152V66.129V66.1473V66.1587V66.1771C324.384 66.1908 324.384 66.2045 324.366 66.216V66.2366L324.336 66.3076V66.3305C324.165 66.7221 323.989 67.1114 323.804 67.4961C323.758 67.5939 323.753 67.7058 323.79 67.8074C323.827 67.909 323.902 67.9922 324.001 68.0388C324.056 68.0636 324.116 68.0769 324.176 68.0777C324.254 68.0781 324.33 68.0569 324.396 68.0164C324.462 67.9758 324.514 67.9177 324.548 67.8487C325.263 66.3431 325.88 64.7943 326.398 63.2116C326.431 63.109 326.422 62.9976 326.372 62.9016C326.323 62.8056 326.237 62.7327 326.134 62.6987C326.093 62.6871 326.05 62.681 326.007 62.6803L325.792 62.82ZM327.642 53.1428C327.537 53.1426 327.436 53.1821 327.359 53.2531C327.283 53.3242 327.237 53.4215 327.23 53.5252C327.216 53.7863 327.198 54.0473 327.177 54.3084V54.3473C327.177 54.3702 327.177 54.3954 327.177 54.4183V54.5969C327.177 54.5969 327.177 54.6198 327.177 54.6312V54.7045V54.7801C327.064 55.9861 326.896 57.1815 326.671 58.3661C326.651 58.4721 326.675 58.5814 326.736 58.6702C326.798 58.759 326.892 58.8201 326.999 58.8401H327.075C327.171 58.8396 327.263 58.8063 327.337 58.7457C327.41 58.6851 327.46 58.6011 327.477 58.5081C327.788 56.8732 327.994 55.2203 328.092 53.5596C328.099 53.4518 328.062 53.3459 327.989 53.2652C327.917 53.1845 327.815 53.1356 327.706 53.1291L327.642 53.1428ZM326.948 43.319H326.867C326.761 43.3406 326.667 43.403 326.607 43.4927C326.547 43.5823 326.525 43.692 326.546 43.7976V43.8182C326.545 43.8296 326.545 43.8411 326.546 43.8526V43.8778V43.8915V43.9121V43.9258V43.9602V43.9923V44.006V44.0243V44.0403V44.0587V44.077V44.0953V44.1228V44.1388V44.1732V44.1915V44.2075V44.2441V44.2648V44.3083C326.55 44.3345 326.555 44.3604 326.562 44.3861V44.409V44.4342L326.576 44.5189V44.5441L326.597 44.6563C326.749 45.5265 326.874 46.3944 326.964 47.2646V47.2897V47.3722V47.4134V47.4844V47.6974V47.7317V47.7752V47.8027V47.876V47.9103C326.983 48.1256 327.001 48.3408 327.015 48.5538C327.023 48.6563 327.069 48.7521 327.145 48.8222C327.221 48.8922 327.321 48.9313 327.424 48.9316H327.454C327.563 48.924 327.664 48.8739 327.736 48.7923C327.807 48.7107 327.843 48.6043 327.836 48.4965C327.717 46.837 327.492 45.1864 327.163 43.5549C327.143 43.463 327.093 43.3805 327.019 43.3213C326.945 43.2621 326.853 43.2298 326.758 43.2297L326.948 43.319ZM323.769 33.9876C323.708 33.9867 323.646 34.0009 323.591 34.0288C323.494 34.0753 323.419 34.1583 323.383 34.2597C323.347 34.361 323.353 34.4723 323.4 34.5692C323.48 34.7387 323.564 34.9081 323.642 35.0776L323.658 35.1096L323.672 35.1371V35.16L323.684 35.1875V35.2058V35.2218V35.2402V35.2539V35.2745V35.2928L323.698 35.3226V35.3386L323.712 35.3707L323.739 35.4302L323.864 35.705L323.938 35.8768L323.982 35.9798L324.008 36.0393L324.021 36.0737V36.092L324.038 36.1287V36.1515V36.1676V36.1836V36.2088V36.2225V36.2386C324.037 36.2462 324.037 36.2538 324.038 36.2615V36.2752V36.2935L324.049 36.3187V36.3416V36.3554V36.376V36.4034L324.061 36.4286C324.059 36.4377 324.059 36.447 324.061 36.4561V36.4836V36.5088L324.072 36.5363L324.086 36.566L324.1 36.5981V36.621V36.6324V36.653V36.6668V36.6965V36.7194V36.7332V36.7515V36.7653V36.7859V36.7996V36.8294V36.8431V36.8637V36.8775V36.8958V36.9118V36.9301V36.9438L324.112 36.9736V36.9874V37.008V37.0217V37.04V37.0538V37.0744V37.0881L324.125 37.1179V37.1316V37.1522V37.166V37.1843V37.198V37.2255C324.126 37.2369 324.126 37.2484 324.125 37.2599V37.2828V37.2942V37.3194V37.3515L324.139 37.3858V37.411V37.4385L324.165 37.5049C324.165 37.5049 324.165 37.5232 324.176 37.5324V37.5621C324.176 37.585 324.192 37.6079 324.202 37.6308L324.213 37.6583V37.6904L324.241 37.7614C324.246 37.7709 324.25 37.7809 324.253 37.7911C324.266 37.8278 324.278 37.8621 324.292 37.8965L324.306 37.9308L324.345 38.0384L324.359 38.0728C324.37 38.1094 324.384 38.1461 324.398 38.1804L324.412 38.2148L324.438 38.288V38.3224V38.3545L324.463 38.4232V38.4506V38.4781V38.5124V38.54V38.5606V38.5743V38.5949V38.6086L324.474 38.6384V38.6567V38.6705V38.6888V38.7025V38.7163C324.502 38.7969 324.555 38.8669 324.625 38.9162C324.695 38.9656 324.779 38.9917 324.865 38.9911C324.91 38.9908 324.954 38.9838 324.997 38.9704C325.048 38.9534 325.095 38.9266 325.136 38.8914C325.176 38.8563 325.209 38.8135 325.233 38.7656C325.257 38.7178 325.271 38.6657 325.275 38.6124C325.278 38.5592 325.271 38.5057 325.254 38.4552C324.983 37.6606 324.683 36.8523 324.359 36.0828C324.035 35.3134 323.705 34.5738 323.346 33.841C323.313 33.7723 323.26 33.7145 323.195 33.674C323.129 33.6335 323.054 33.612 322.976 33.612L323.769 33.9876ZM318.33 25.7438C318.232 25.744 318.137 25.778 318.062 25.84C317.979 25.9101 317.928 26.0093 317.919 26.1164C317.91 26.2235 317.944 26.3298 318.013 26.4125C319.084 27.6518 320.073 28.9583 320.974 30.3237C321.035 30.4127 321.128 30.4746 321.234 30.496C321.34 30.5175 321.45 30.4967 321.541 30.4382C321.632 30.3792 321.696 30.2867 321.719 30.1811C321.741 30.0755 321.72 29.9654 321.661 29.8748C320.741 28.4833 319.732 27.151 318.642 25.8858C318.603 25.8412 318.556 25.8053 318.502 25.7808C318.448 25.7563 318.389 25.7437 318.33 25.7438ZM310.955 19.1374C310.869 19.1389 310.785 19.1675 310.716 19.219C310.646 19.2706 310.595 19.3424 310.57 19.4244C310.544 19.5063 310.545 19.5942 310.573 19.6755C310.601 19.7568 310.654 19.8273 310.724 19.8771C311.629 20.4999 312.507 21.1617 313.36 21.8624L313.387 21.883L313.413 21.9036L313.434 21.9219L313.457 21.9402L313.477 21.9563H313.489H313.503L313.521 21.9723L313.538 21.9861H313.551L313.565 21.9998L313.593 22.0227C313.912 22.2914 314.227 22.5646 314.539 22.8425C314.578 22.8819 314.625 22.9129 314.677 22.9336C314.729 22.9543 314.785 22.9643 314.841 22.963C314.897 22.9617 314.952 22.949 315.002 22.9259C315.053 22.9028 315.099 22.8696 315.136 22.8284C315.174 22.7872 315.202 22.7389 315.22 22.6864C315.238 22.6339 315.245 22.5783 315.241 22.523C315.237 22.4677 315.221 22.414 315.195 22.3649C315.168 22.3159 315.132 22.2727 315.089 22.2379C313.846 21.1231 312.534 20.0875 311.159 19.1374C311.091 19.0907 311.01 19.0652 310.928 19.0641L310.955 19.1374ZM302.131 14.5965C302.036 14.5971 301.943 14.6309 301.87 14.6919C301.796 14.7529 301.747 14.8373 301.73 14.9306C301.712 15.024 301.728 15.1203 301.775 15.2031C301.822 15.2859 301.896 15.3499 301.986 15.3842C303.166 15.8147 304.322 16.3025 305.453 16.8475L305.486 16.8635L305.52 16.8795L305.553 16.8933L305.583 16.907L305.613 16.9207L305.643 16.9345H305.666L305.692 16.9459H305.715H305.729H305.742H305.768L305.796 16.9597C306.006 17.0627 306.214 17.168 306.424 17.2757C306.483 17.3064 306.548 17.3221 306.614 17.3215C306.706 17.3226 306.797 17.2927 306.87 17.2366C306.943 17.1805 306.995 17.1016 307.017 17.0126C307.039 16.9236 307.029 16.8298 306.991 16.7466C306.952 16.6634 306.886 16.5956 306.803 16.5544C305.314 15.7865 303.776 15.1126 302.201 14.5369C302.156 14.5197 302.108 14.5112 302.06 14.5117L302.131 14.5965ZM292.443 12.3867C292.338 12.3866 292.236 12.4266 292.16 12.4984C292.083 12.5701 292.037 12.6683 292.032 12.7725C292.026 12.8768 292.061 12.9792 292.129 13.0586C292.198 13.1381 292.294 13.1886 292.399 13.1996C293.131 13.2698 293.859 13.3622 294.584 13.4767H294.621H294.653H294.685H294.715H294.745H294.773H294.808H294.826H294.861H294.884H294.926H294.949H294.979H295.007H295.018H295.048H295.083H295.12H295.157C295.857 13.5958 296.55 13.7347 297.237 13.8935C297.268 13.9005 297.299 13.9043 297.33 13.9049C297.43 13.9039 297.527 13.8666 297.601 13.8C297.676 13.7334 297.723 13.6422 297.734 13.5435C297.746 13.4447 297.72 13.3453 297.663 13.2638C297.605 13.1824 297.52 13.1245 297.422 13.1011C295.786 12.727 294.128 12.457 292.457 12.2928L292.443 12.3867Z" fill="#C4CFE8"/>
<path d="M133.916 16.8198C134.178 7.80506 127.013 0.286631 117.912 0.0269522C108.811 -0.232726 101.221 6.86468 100.959 15.8795C100.697 24.8942 107.862 32.4127 116.963 32.6723C126.063 32.932 133.653 25.8346 133.916 16.8198Z" fill="#E9ECF4"/>
<path d="M139.149 16.778C139.152 16.7181 139.142 16.6582 139.12 16.6024C139.097 16.5466 139.063 16.4964 139.019 16.4551C137.723 15.2576 136.177 14.3564 134.49 13.8148C134.389 13.7882 134.281 13.8011 134.188 13.8509C134.096 13.9007 134.026 13.9837 133.994 14.0827C133.961 14.1818 133.968 14.2894 134.013 14.3835C134.058 14.4777 134.138 14.5511 134.236 14.5888C134.43 14.6507 134.622 14.7171 134.809 14.7904L134.842 14.8018H134.856H134.879H134.893H134.909H134.927H134.941H134.999H135.128H135.184H135.198H135.219H135.23H135.251H135.269H135.283H135.306H135.339C136.491 15.309 137.549 16.0059 138.467 16.8627C138.546 16.9363 138.652 16.9756 138.76 16.9722C138.869 16.9688 138.972 16.9228 139.047 16.8444C139.111 16.7744 139.151 16.6849 139.158 16.5902L139.149 16.778ZM129.728 13.7599C129.732 13.7348 129.732 13.7094 129.728 13.6843C129.721 13.631 129.704 13.5796 129.677 13.533C129.65 13.4864 129.614 13.4456 129.571 13.4128C129.528 13.38 129.479 13.356 129.427 13.342C129.374 13.3281 129.32 13.3246 129.266 13.3317C127.505 13.5488 125.815 14.1519 124.319 15.0972C124.27 15.1247 124.228 15.1615 124.195 15.2055C124.162 15.2495 124.138 15.2998 124.124 15.3533C124.111 15.4068 124.109 15.4623 124.118 15.5167C124.127 15.571 124.147 15.623 124.177 15.6694C124.207 15.7159 124.246 15.7559 124.292 15.7869C124.337 15.818 124.389 15.8396 124.444 15.8503C124.498 15.861 124.554 15.8607 124.609 15.8494C124.663 15.838 124.715 15.8158 124.76 15.7842C125.024 15.6193 125.294 15.4636 125.572 15.3262L125.602 15.3102H125.625H125.646H125.659L125.68 15.2987H125.696H125.71H125.731H125.861H125.937H125.992H126.009H126.027H126.043H126.062H126.087H126.108C126.584 15.0837 127.076 14.9023 127.578 14.756H127.611H127.634H127.652H127.671H127.689H127.708H127.953H127.969H128.017H128.041H128.054H128.078C128.498 14.6564 128.924 14.5799 129.354 14.527C129.449 14.5149 129.537 14.4703 129.602 14.4009C129.667 14.3315 129.706 14.2417 129.712 14.1469L129.728 13.7599ZM121.371 19.0267C121.376 18.9544 121.361 18.8821 121.328 18.8176C121.294 18.753 121.244 18.6987 121.182 18.6603C121.136 18.6315 121.086 18.6118 121.033 18.6024C120.98 18.593 120.925 18.5941 120.872 18.6056C120.82 18.6171 120.77 18.6387 120.726 18.6694C120.682 18.7 120.644 18.7389 120.615 18.784C119.661 20.2633 119.052 21.9352 118.833 23.6776C118.833 23.6776 118.833 23.6959 118.833 23.705C118.828 23.8095 118.865 23.9116 118.934 23.9903C119.004 24.069 119.101 24.1182 119.206 24.1279C119.311 24.1376 119.416 24.107 119.499 24.0424C119.581 23.9777 119.636 23.884 119.651 23.7806C119.686 23.515 119.728 23.2516 119.781 22.9929V22.9585V22.9311V22.9127V22.8944V22.8807V22.8692V22.8555V22.8394V22.8188V22.8028V22.7822V22.7616V22.741V22.725V22.6998V22.6746V22.654V22.6334V22.6082V22.5876V22.5692V22.5509V22.5303V22.512V22.496V22.4822V22.4593V22.4433V22.4273V22.4112V22.3952V22.3815H119.792H119.806H119.82H119.848V22.3654V22.3448L119.859 22.3196C120.091 21.7941 120.364 21.2872 120.675 20.8037C120.713 20.7453 120.734 20.6782 120.738 20.6091L121.371 19.0267ZM122.7 33.0709C122.704 33.016 122.696 32.9609 122.677 32.9093C122.658 32.8576 122.628 32.8105 122.589 32.7709C121.604 31.724 120.83 30.4997 120.31 29.1642V29.1413V29.1207H120.299H120.278V29.1024V29.0749C120.25 28.9948 120.222 28.9146 120.197 28.8322C120.163 28.7297 120.089 28.6446 119.992 28.5957C119.895 28.5467 119.783 28.5379 119.679 28.5711C119.6 28.5957 119.531 28.6434 119.48 28.7081C119.429 28.7727 119.399 28.8512 119.395 28.9329C119.392 28.9841 119.399 29.0353 119.415 29.0841C119.963 30.7516 120.872 32.2803 122.079 33.5632C122.115 33.6025 122.16 33.6342 122.209 33.6566C122.258 33.6789 122.311 33.6914 122.366 33.6933C122.42 33.6952 122.474 33.6865 122.524 33.6677C122.575 33.6489 122.622 33.6204 122.661 33.5838C122.737 33.5112 122.783 33.4133 122.791 33.309L122.7 33.0709ZM131.892 36.7118V36.6637C131.885 36.556 131.836 36.4552 131.754 36.3835C131.673 36.3118 131.566 36.275 131.457 36.2813H131.279H128.829H128.808H128.76H128.739H128.69H128.669H128.655H128.635H128.621H128.6H128.586H128.551H128.538H128.517H128.482C127.846 36.1501 127.222 35.9639 126.619 35.7249C126.517 35.6851 126.404 35.6869 126.304 35.7298C126.204 35.7728 126.125 35.8534 126.085 35.9539C126.069 35.9949 126.059 36.0382 126.057 36.0821C126.052 36.1673 126.075 36.2519 126.121 36.3238C126.168 36.3957 126.236 36.4513 126.316 36.4828C127.516 36.9581 128.785 37.238 130.075 37.3118C130.548 37.3381 131.023 37.3381 131.497 37.3118C131.597 37.3054 131.692 37.2631 131.763 37.1928C131.835 37.1225 131.878 37.0289 131.885 36.9294L131.892 36.7118ZM140.586 32.0266C140.591 31.9587 140.578 31.8907 140.549 31.8289C140.52 31.7672 140.476 31.7139 140.42 31.674C140.377 31.6423 140.327 31.6194 140.275 31.6066C140.223 31.5938 140.168 31.5914 140.115 31.5995C140.062 31.6076 140.011 31.626 139.965 31.6537C139.919 31.6815 139.878 31.7179 139.847 31.761H139.807H139.793H139.777H139.763H139.75H139.731H139.717H139.703H139.689H139.673H139.657H139.576H139.544H139.528H139.514H139.5H139.488H139.472H139.458V31.7725H139.447V31.7862V31.7999V31.8137V31.8274H139.435L139.421 31.8434L139.403 31.8618L139.382 31.887L139.366 31.9053L139.276 32.0037C138.862 32.443 138.414 32.8488 137.935 33.2174L137.912 33.2357L137.891 33.2517H137.872L137.856 33.2632H137.84H137.826H137.496H137.479H137.461H137.385H137.366H137.345H137.329H137.313H137.264H137.248H137.232C136.891 33.4979 136.538 33.7143 136.173 33.9112C136.057 33.9356 135.947 33.9824 135.849 34.0489C135.751 34.1154 135.668 34.2004 135.603 34.2989C135.538 34.3975 135.494 34.5077 135.472 34.6233C135.45 34.7389 135.452 34.8576 135.476 34.9726C135.501 35.0876 135.548 35.1967 135.615 35.2937C135.682 35.3906 135.768 35.4735 135.868 35.5376C135.967 35.6017 136.078 35.6458 136.195 35.6673C136.312 35.6889 136.432 35.6874 136.548 35.663C138.101 34.8218 139.45 33.6551 140.501 32.2442C140.55 32.1773 140.577 32.0976 140.579 32.0152L140.586 32.0266ZM142.824 25.8828C142.933 24.1313 142.648 22.3778 141.99 20.7487C141.955 20.6627 141.892 20.591 141.811 20.5452C141.729 20.4995 141.635 20.4826 141.542 20.4973C141.45 20.5119 141.365 20.5573 141.303 20.6259C141.24 20.6945 141.202 20.7823 141.197 20.8747C141.193 20.934 141.203 20.9933 141.224 21.0487C141.468 21.6523 141.658 22.276 141.791 22.9127C141.791 22.9287 141.791 22.9494 141.791 22.9677C141.792 22.9799 141.792 22.9921 141.791 23.0043C141.792 23.0165 141.792 23.0288 141.791 23.041V23.0707V23.0982V23.1303V23.1486V23.1761V23.2035V23.2173V23.2356V23.2562V23.27C141.791 23.27 141.791 23.2699 141.791 23.2883V23.302V23.3157V23.3318V23.3455V23.3593V23.373V23.3867V23.3982V23.4119V23.4302C141.756 23.7325 141.71 24.0325 141.652 24.3279C141.65 24.3454 141.65 24.3631 141.652 24.3806C141.647 24.4829 141.681 24.5834 141.748 24.6619C141.814 24.7404 141.908 24.7911 142.011 24.8041C142.114 24.8171 142.217 24.7914 142.302 24.732C142.386 24.6726 142.445 24.5839 142.466 24.4836C142.57 23.9544 142.638 23.4189 142.669 22.8807L142.824 25.8828Z" fill="#C4CFE8"/>
<path d="M273.873 212.365L65.0042 212.365C63.4745 212.365 61.9597 212.067 60.5464 211.487C59.1331 210.907 57.8489 210.057 56.7672 208.986C55.6855 207.914 54.8274 206.642 54.242 205.242C53.6566 203.842 53.3553 202.342 53.3553 200.826L53.3553 76.9413C53.3553 71.1486 55.6784 65.5932 59.8134 61.4971C63.9485 57.4011 69.5569 55.1 75.4048 55.1L285.526 55.1V200.835C285.524 203.895 284.295 206.828 282.11 208.99C279.924 211.153 276.962 212.366 273.873 212.365Z" fill="#A6B3D6"/>
<path d="M285.519 101.455L169.437 101.455V48.0998C169.437 45.344 169.985 42.6152 171.05 40.0692C172.114 37.5232 173.675 35.2098 175.642 33.2612C177.609 31.3126 179.944 29.7669 182.515 28.7123C185.085 27.6577 187.84 27.1149 190.622 27.1149L264.334 27.1149C267.116 27.1149 269.871 27.6577 272.441 28.7123C275.012 29.7669 277.347 31.3126 279.314 33.2612C281.281 35.2098 282.842 37.5232 283.906 40.0692C284.971 42.6152 285.519 45.344 285.519 48.0998V101.455Z" fill="#A6B3D6"/>
<path d="M278.14 79.0296C277.987 79.0296 277.84 78.9693 277.731 78.8619C277.623 78.7546 277.562 78.609 277.562 78.4571V53.4969C277.557 48.6924 275.628 44.0861 272.199 40.6886C268.769 37.2911 264.119 35.3799 259.269 35.3745H186.983C184.44 35.3769 182.003 36.3783 180.205 38.1591C178.406 39.9398 177.395 42.3544 177.392 44.8731C177.392 45.0249 177.331 45.1705 177.222 45.2779C177.114 45.3852 176.967 45.4455 176.814 45.4455C176.66 45.4455 176.513 45.3852 176.405 45.2779C176.297 45.1705 176.236 45.0249 176.236 44.8731C176.239 42.0507 177.372 39.3449 179.387 37.3495C181.402 35.354 184.134 34.2319 186.983 34.2295H259.269C264.426 34.2356 269.369 36.2675 273.016 39.8796C276.662 43.4917 278.712 48.389 278.718 53.4969V78.4571C278.718 78.609 278.657 78.7546 278.549 78.8619C278.44 78.9693 278.293 79.0296 278.14 79.0296Z" fill="#C4CFE8"/>
<path d="M64.0886 210.084H274.786L262 78.5371C261.703 75.4806 260.267 72.6431 257.973 70.5782C255.679 68.5134 252.69 67.3693 249.59 67.3691H89.2844C86.1851 67.3723 83.1978 68.5174 80.9037 70.5816C78.6096 72.6458 77.1727 75.4815 76.8726 78.5371L64.0886 210.084Z" fill="white"/>
<path d="M65.0017 212.375H273.87C276.96 212.375 279.923 211.159 282.107 208.995C284.292 206.831 285.519 203.896 285.519 200.836L277.456 98.3503C277.133 94.251 275.262 90.4231 272.215 87.6308C269.168 84.8385 265.17 83.2874 261.019 83.2871H77.8527C73.7018 83.2874 69.7038 84.8385 66.6569 87.6308C63.6101 90.4231 61.7386 94.251 61.4161 98.3503L53.3481 200.836C53.3481 202.352 53.6496 203.852 54.2353 205.253C54.821 206.653 55.6795 207.925 56.7617 208.997C57.8439 210.068 59.1286 210.918 60.5424 211.498C61.9562 212.077 63.4715 212.375 65.0017 212.375Z" fill="#C4CFE8"/>
<path d="M274.763 202.478C274.618 202.478 274.478 202.423 274.372 202.326C274.266 202.228 274.2 202.094 274.189 201.951L266.905 109.358C266.598 105.68 264.911 102.249 262.176 99.7424C259.441 97.2361 255.857 95.8365 252.131 95.8198H86.7413C83.0155 95.836 79.4312 97.2355 76.6963 99.742C73.9614 102.248 72.2747 105.68 71.9693 109.358L64.6757 201.951C64.6699 202.026 64.6491 202.099 64.6147 202.166C64.5802 202.233 64.5327 202.293 64.4749 202.341C64.4171 202.39 64.3502 202.427 64.2779 202.45C64.2056 202.473 64.1295 202.482 64.0538 202.475C63.9012 202.464 63.7596 202.392 63.6599 202.277C63.5602 202.162 63.5107 202.013 63.5221 201.862L70.8065 109.269C71.117 105.295 72.9339 101.585 75.8923 98.8837C78.8417 96.1744 82.7166 94.6708 86.739 94.6748H252.131C256.152 94.6749 260.026 96.1776 262.978 98.8828C265.93 101.588 267.744 105.297 268.056 109.269L275.341 201.862C275.347 201.937 275.338 202.012 275.314 202.083C275.291 202.155 275.253 202.221 275.204 202.278C275.154 202.335 275.094 202.382 275.026 202.416C274.958 202.45 274.885 202.47 274.809 202.475L274.763 202.478Z" fill="#E9ECF4"/>
<path d="M78.2109 152.56H196.418C199.728 152.56 202.904 153.862 205.245 156.181C207.586 158.5 208.901 161.646 208.901 164.925V234.582C208.901 236.305 208.21 237.958 206.98 239.176C205.75 240.395 204.082 241.079 202.343 241.079H84.7694C83.03 241.079 81.3618 240.395 80.1319 239.176C78.9019 237.958 78.2109 236.305 78.2109 234.582V152.56Z" fill="#A6B3D6"/>
<path d="M88.5722 136.789H133.189C134.55 136.788 135.899 137.052 137.157 137.568C138.415 138.083 139.558 138.839 140.521 139.792C141.484 140.745 142.249 141.877 142.77 143.123C143.291 144.369 143.559 145.704 143.559 147.053V174.877C143.559 175.877 143.158 176.836 142.445 177.543C141.731 178.25 140.763 178.647 139.754 178.647H78.2109V147.046C78.2128 144.325 79.3052 141.716 81.2481 139.793C83.191 137.869 85.8254 136.789 88.5722 136.789Z" fill="#A6B3D6"/>
<path d="M82.3628 166.272C82.2096 166.272 82.0626 166.212 81.9542 166.104C81.8458 165.997 81.7849 165.851 81.7849 165.699V150.1C81.788 147.569 82.8044 145.143 84.6111 143.353C86.4179 141.564 88.8675 140.557 91.4226 140.554H133.684C135.354 140.556 136.956 141.214 138.138 142.384C139.319 143.554 139.984 145.141 139.985 146.796C139.985 146.948 139.925 147.093 139.816 147.201C139.708 147.308 139.561 147.369 139.408 147.369C139.254 147.369 139.107 147.308 138.999 147.201C138.89 147.093 138.83 146.948 138.83 146.796C138.828 145.445 138.285 144.149 137.32 143.194C136.356 142.238 135.048 141.7 133.684 141.699H91.4226C89.1734 141.7 87.0169 142.586 85.4263 144.161C83.8356 145.737 82.9409 147.872 82.9385 150.1V165.699C82.9388 165.774 82.9241 165.849 82.8953 165.918C82.8665 165.988 82.8242 166.051 82.7707 166.104C82.7172 166.157 82.6537 166.199 82.5837 166.228C82.5137 166.257 82.4386 166.272 82.3628 166.272Z" fill="#C4CFE8"/>
<path d="M202.354 241.091H84.7671C83.028 241.09 81.3605 240.405 80.131 239.187C78.9016 237.969 78.2109 236.317 78.2109 234.594L82.6333 178.374C82.8464 175.665 84.0836 173.135 86.0978 171.289C88.112 169.444 90.7549 168.419 93.4985 168.42H193.625C196.369 168.419 199.011 169.444 201.026 171.289C203.04 173.135 204.277 175.665 204.49 178.374L208.912 234.594C208.912 236.317 208.222 237.97 206.992 239.188C205.762 240.406 204.093 241.091 202.354 241.091Z" fill="#C4CFE8"/>
<path d="M202.856 235.768C202.711 235.768 202.571 235.714 202.464 235.616C202.358 235.519 202.292 235.385 202.28 235.242L198.295 184.588C198.094 182.18 196.989 179.933 195.198 178.292C193.407 176.651 191.06 175.735 188.62 175.724H98.499C96.0592 175.735 93.7122 176.651 91.9211 178.292C90.13 179.933 89.0251 182.18 88.8244 184.588L84.8412 235.242C84.8357 235.317 84.8151 235.39 84.7808 235.457C84.7464 235.524 84.6989 235.584 84.6411 235.633C84.5832 235.681 84.5161 235.718 84.4437 235.741C84.3713 235.764 84.2951 235.772 84.2194 235.766C84.0668 235.754 83.9251 235.683 83.8254 235.568C83.7257 235.453 83.6762 235.303 83.6877 235.152L87.6731 184.508C87.897 181.812 89.1331 179.298 91.1374 177.461C93.1417 175.624 95.7684 174.598 98.499 174.586H188.622C191.354 174.597 193.981 175.622 195.986 177.459C197.991 179.297 199.227 181.812 199.451 184.508L203.436 235.159C203.448 235.31 203.398 235.46 203.298 235.575C203.199 235.69 203.057 235.761 202.904 235.773L202.856 235.768Z" fill="#E9ECF4"/>
<path d="M128.632 201.968C131.496 201.298 133.27 198.456 132.594 195.618C131.918 192.781 129.048 191.024 126.184 191.694C123.319 192.363 121.546 195.206 122.222 198.043C122.898 200.881 125.768 202.638 128.632 201.968Z" fill="#A6B3D6"/>
<path d="M163.286 200.558C165.366 198.497 165.366 195.155 163.286 193.094C161.205 191.033 157.831 191.033 155.75 193.094C153.669 195.155 153.669 198.497 155.75 200.558C157.831 202.62 161.205 202.62 163.286 200.558Z" fill="#A6B3D6"/>
<path d="M163.387 225.145C159.08 219.528 151.637 216.176 143.471 216.176C135.306 216.176 127.863 219.528 123.558 225.145L122.085 224.037C126.737 217.966 134.733 214.344 143.471 214.344C152.21 214.344 160.206 217.966 164.86 224.037L163.387 225.145Z" fill="#A6B3D6"/>
<path d="M297.025 88.9731C281.451 71.0041 254.117 68.9454 235.976 84.375C217.836 99.8045 215.758 126.878 231.332 144.847C237.225 151.646 245.119 156.446 253.906 158.574C262.693 160.702 271.933 160.051 280.327 156.711C281.43 156.271 282.647 156.193 283.797 156.49C284.948 156.786 285.972 157.441 286.719 158.358L308.577 185.271C309.524 186.438 310.699 187.404 312.031 188.112C313.362 188.82 314.824 189.256 316.329 189.393C317.835 189.531 319.352 189.367 320.792 188.913C322.232 188.458 323.566 187.721 324.713 186.746C325.861 185.771 326.799 184.577 327.471 183.235C328.144 181.893 328.537 180.431 328.628 178.935C328.718 177.44 328.505 175.942 327.999 174.53C327.493 173.118 326.706 171.821 325.684 170.717L302.132 145.248C301.33 144.378 300.832 143.277 300.711 142.106C300.589 140.934 300.851 139.755 301.457 138.742C306.057 131.027 308.104 122.079 307.309 113.153C306.514 104.227 302.918 95.7714 297.025 88.9731Z" fill="#A6B3D6"/>
<path d="M234.659 85.1254C234.575 85.1251 234.493 85.1072 234.417 85.0728C234.342 85.0385 234.274 84.9885 234.219 84.9262C234.17 84.8691 234.132 84.8029 234.108 84.7313C234.085 84.6598 234.075 84.5843 234.081 84.5092C234.087 84.4341 234.108 84.3609 234.142 84.2937C234.177 84.2266 234.224 84.1668 234.282 84.1178C240.985 78.4153 249.194 74.7293 257.942 73.4939C266.689 72.2585 275.611 73.5253 283.656 77.145C283.796 77.2079 283.905 77.3232 283.959 77.4655C284.013 77.6079 284.007 77.7657 283.944 77.9041C283.88 78.0426 283.764 78.1504 283.62 78.2039C283.477 78.2574 283.317 78.2521 283.178 78.1892C275.329 74.6802 266.634 73.4561 258.109 74.66C249.584 75.864 241.581 79.4461 235.035 84.988C234.93 85.0768 234.797 85.1255 234.659 85.1254Z" fill="#E9ECF4"/>
<path d="M264.179 149.66C282.439 149.66 297.242 134.997 297.242 116.91C297.242 98.8221 282.439 84.1592 264.179 84.1592C245.919 84.1592 231.117 98.8221 231.117 116.91C231.117 134.997 245.919 149.66 264.179 149.66Z" fill="#E9ECF4"/>
<path d="M244.317 134.378C244.233 134.378 244.151 134.361 244.075 134.326C243.999 134.292 243.932 134.241 243.878 134.178C242.3 132.36 240.978 130.339 239.948 128.17C239.915 128.101 239.897 128.028 239.893 127.952C239.89 127.877 239.901 127.802 239.927 127.731C239.953 127.661 239.992 127.595 240.043 127.54C240.094 127.484 240.156 127.439 240.225 127.407C240.294 127.375 240.368 127.357 240.444 127.353C240.52 127.35 240.596 127.361 240.667 127.386C240.739 127.412 240.805 127.451 240.861 127.502C240.917 127.553 240.962 127.614 240.995 127.682C241.981 129.762 243.248 131.7 244.761 133.443C244.833 133.526 244.879 133.628 244.895 133.736C244.91 133.845 244.894 133.955 244.848 134.055C244.802 134.154 244.728 134.239 244.635 134.298C244.542 134.357 244.434 134.389 244.324 134.389L244.317 134.378Z" fill="#C4CFE8"/>
<path d="M238.198 120.711C238.057 120.71 237.921 120.659 237.816 120.567C237.71 120.475 237.642 120.348 237.624 120.209C236.909 114.557 238.051 108.827 240.881 103.867C243.711 98.9079 248.078 94.9837 253.336 92.6759C258.594 90.3681 264.463 89.7996 270.073 91.0546C275.683 92.3096 280.735 95.3214 284.481 99.6436C284.571 99.7598 284.613 99.9058 284.598 100.051C284.582 100.197 284.511 100.331 284.399 100.427C284.287 100.522 284.142 100.571 283.994 100.564C283.847 100.557 283.707 100.494 283.605 100.388C280.02 96.2532 275.186 93.3725 269.818 92.1723C264.451 90.9722 258.836 91.5165 253.805 93.7247C248.775 95.9328 244.596 99.6874 241.888 104.432C239.18 109.177 238.087 114.659 238.771 120.067C238.79 120.218 238.748 120.37 238.654 120.49C238.56 120.61 238.421 120.687 238.269 120.706L238.198 120.711Z" fill="#C4CFE8"/>
<path d="M308.576 185.271C309.524 186.438 310.699 187.404 312.03 188.112C313.362 188.82 314.824 189.255 316.329 189.393C317.834 189.531 319.352 189.367 320.792 188.912C322.232 188.458 323.565 187.721 324.712 186.746C325.86 185.77 326.799 184.576 327.471 183.234C328.144 181.892 328.537 180.43 328.628 178.935C328.718 177.439 328.504 175.941 327.998 174.529C327.493 173.117 326.705 171.821 325.683 170.716L306.833 150.336L291.083 163.732L308.576 185.271Z" fill="#C4CFE8"/>
</g>
<defs>
<clipPath id="clip0_1531_1402">
<rect width="382" height="256" fill="white"/>
</clipPath>
</defs>
</svg>
