<svg width="532" height="35" viewBox="0 0 532 35" fill="none" xmlns="http://www.w3.org/2000/svg">
<path d="M0.353813 26V1.196H4.96181V21.896H14.5378V26H0.353813ZM33.9418 17.54C33.9418 17.972 33.9058 18.656 33.8698 19.052H21.0538C21.3418 21.32 23.2138 22.652 25.6978 22.652C27.3898 22.652 29.0818 21.932 29.9098 20.492C30.9538 21.068 32.1418 21.716 33.2578 22.292C31.7098 25.172 28.5058 26.36 25.4098 26.36C20.6218 26.36 16.6978 22.832 16.6978 17.54C16.6978 12.212 20.6218 8.828 25.4098 8.828C30.1618 8.828 33.9418 12.212 33.9418 17.54ZM21.0178 16.064H29.6578C29.3338 13.76 27.6058 12.5 25.4458 12.5C23.1418 12.5 21.3418 13.76 21.0178 16.064ZM50.3843 26V23.84C49.3403 25.568 46.7843 26.324 45.1643 26.324C40.7363 26.324 36.5963 22.94 36.5963 17.576C36.5963 12.212 40.7363 8.828 45.1643 8.828C46.7123 8.828 49.1243 9.44 50.3843 11.276V9.188H54.7763V26H50.3843ZM41.1323 17.576C41.1323 20.312 43.3283 22.112 45.7763 22.112C48.1883 22.112 50.3843 20.456 50.3843 17.576C50.3843 14.696 48.0803 13.04 45.7763 13.04C43.3283 13.04 41.1323 14.84 41.1323 17.576ZM64.1455 20.06V26H59.7535V9.188H64.1455V13.148C65.0095 10.088 66.9895 8.828 68.8975 8.828C70.0855 8.828 70.9855 9.044 71.6695 9.44L70.9135 13.4C69.8695 12.932 68.7895 12.932 68.3575 12.932C65.3695 12.932 64.1455 15.596 64.1455 20.06ZM78.9463 17.036V26H74.5543V9.188H78.9463V11.672C79.9183 9.836 81.9703 8.828 83.9503 8.828C87.8743 8.828 90.2143 11.276 90.2143 16.064V26H85.8223V16.856C85.8223 14.408 84.5263 13.112 82.6183 13.112C80.6023 13.112 78.9463 14.12 78.9463 17.036ZM117.95 17.972L125.834 1.196H129.794L132.818 26H128.21L126.302 9.476L119.822 23.192H116.15L109.634 9.476L107.69 26H103.082L106.142 1.196H110.03L117.95 17.972ZM149.525 26V23.84C148.481 25.568 145.925 26.324 144.305 26.324C139.877 26.324 135.737 22.94 135.737 17.576C135.737 12.212 139.877 8.828 144.305 8.828C145.853 8.828 148.265 9.44 149.525 11.276V9.188H153.917V26H149.525ZM140.273 17.576C140.273 20.312 142.469 22.112 144.917 22.112C147.329 22.112 149.525 20.456 149.525 17.576C149.525 14.696 147.221 13.04 144.917 13.04C142.469 13.04 140.273 14.84 140.273 17.576ZM164.654 2.78V9.188H168.218V12.716H164.654V26H160.298V12.716H157.238V9.188H160.298V2.78H164.654ZM175.907 17.036V26H171.515V0.0439994H175.907V11.78C176.663 9.764 179.471 8.828 181.127 8.828C185.483 8.828 187.895 11.708 187.895 16.64V26H183.503V16.856C183.503 14.444 181.739 13.112 179.939 13.112C178.103 13.112 175.907 14.12 175.907 17.036ZM208.844 17.54C208.844 17.972 208.808 18.656 208.772 19.052H195.956C196.244 21.32 198.116 22.652 200.6 22.652C202.292 22.652 203.984 21.932 204.812 20.492C205.856 21.068 207.044 21.716 208.16 22.292C206.612 25.172 203.408 26.36 200.312 26.36C195.524 26.36 191.6 22.832 191.6 17.54C191.6 12.212 195.524 8.828 200.312 8.828C205.064 8.828 208.844 12.212 208.844 17.54ZM195.92 16.064H204.56C204.236 13.76 202.508 12.5 200.348 12.5C198.044 12.5 196.244 13.76 195.92 16.064ZM231.371 13.112C229.355 13.112 227.951 14.444 227.951 17.036V26H223.559V16.748C223.523 14.408 222.191 13.112 220.463 13.112C218.663 13.112 216.935 14.156 216.935 17.036V26H212.543V9.188H216.935V11.672C217.907 9.62 220.139 8.864 221.759 8.864C224.459 9.008 226.151 9.944 227.123 11.996C228.671 9.188 231.119 8.828 232.415 8.828C236.483 8.828 238.895 11.456 238.895 16.388V26H234.539V16.856C234.539 14.408 233.207 13.112 231.371 13.112ZM256.4 26V23.84C255.356 25.568 252.8 26.324 251.18 26.324C246.752 26.324 242.612 22.94 242.612 17.576C242.612 12.212 246.752 8.828 251.18 8.828C252.728 8.828 255.14 9.44 256.4 11.276V9.188H260.792V26H256.4ZM247.148 17.576C247.148 20.312 249.344 22.112 251.792 22.112C254.204 22.112 256.4 20.456 256.4 17.576C256.4 14.696 254.096 13.04 251.792 13.04C249.344 13.04 247.148 14.84 247.148 17.576ZM271.529 2.78V9.188H275.093V12.716H271.529V26H267.173V12.716H264.113V9.188H267.173V2.78H271.529ZM282.746 9.188V26H278.39V9.188H282.746ZM277.742 2.672C277.742 1.196 279.038 0.0439994 280.586 0.0439994C282.134 0.0439994 283.358 1.196 283.358 2.672C283.358 4.22 282.134 5.336 280.586 5.336C279.038 5.336 277.742 4.22 277.742 2.672ZM286.627 17.54C286.627 12.212 290.875 8.828 295.699 8.828C298.543 8.828 301.099 9.98 302.683 12.104L299.191 14.732C298.363 13.616 297.103 13.076 295.699 13.076C293.251 13.076 290.983 14.804 290.983 17.54C290.983 20.276 293.251 22.148 295.699 22.148C297.103 22.148 298.363 21.572 299.191 20.456L302.719 23.048C301.135 25.172 298.579 26.36 295.699 26.36C290.875 26.36 286.627 22.832 286.627 17.54ZM312.782 19.556L310.478 18.98C306.122 17.828 305.726 15.776 305.726 13.832C305.726 11.096 308.606 8.828 311.918 8.828C315.122 8.828 318.29 10.268 318.47 14.12H314.294C314.186 12.86 313.034 12.392 312.026 12.392C310.91 12.392 309.902 12.788 309.902 14.048C309.902 14.732 310.694 15.2 311.666 15.452L314.474 16.136C318.362 17.216 318.866 19.808 318.866 21.176C318.866 24.632 315.482 26.36 311.99 26.36C308.678 26.36 305.33 24.308 305.222 20.708H309.326C309.434 21.896 310.802 22.94 312.422 22.832C313.682 22.796 314.618 22.112 314.618 21.14C314.654 20.276 314.042 19.844 312.782 19.556ZM336.043 9.188V26H331.687V9.188H336.043ZM331.039 2.672C331.039 1.196 332.335 0.0439994 333.883 0.0439994C335.431 0.0439994 336.655 1.196 336.655 2.672C336.655 4.22 335.431 5.336 333.883 5.336C332.335 5.336 331.039 4.22 331.039 2.672ZM345.396 17.036V26H341.004V9.188H345.396V11.672C346.368 9.836 348.42 8.828 350.4 8.828C354.324 8.828 356.664 11.276 356.664 16.064V26H352.272V16.856C352.272 14.408 350.976 13.112 349.068 13.112C347.052 13.112 345.396 14.12 345.396 17.036ZM370.971 26V1.196H386.307V5.3H375.543V11.744H384.975V15.812H375.543V21.896H386.667V26H370.971ZM403.283 26V23.84C402.239 25.568 399.683 26.324 398.063 26.324C393.635 26.324 389.495 22.94 389.495 17.576C389.495 12.212 393.635 8.828 398.063 8.828C399.611 8.828 402.023 9.44 403.283 11.276V9.188H407.675V26H403.283ZM394.031 17.576C394.031 20.312 396.227 22.112 398.675 22.112C401.087 22.112 403.283 20.456 403.283 17.576C403.283 14.696 400.979 13.04 398.675 13.04C396.227 13.04 394.031 14.84 394.031 17.576ZM419.024 19.556L416.72 18.98C412.364 17.828 411.968 15.776 411.968 13.832C411.968 11.096 414.848 8.828 418.16 8.828C421.364 8.828 424.532 10.268 424.712 14.12H420.536C420.428 12.86 419.276 12.392 418.268 12.392C417.152 12.392 416.144 12.788 416.144 14.048C416.144 14.732 416.936 15.2 417.908 15.452L420.716 16.136C424.604 17.216 425.108 19.808 425.108 21.176C425.108 24.632 421.724 26.36 418.232 26.36C414.92 26.36 411.572 24.308 411.464 20.708H415.568C415.676 21.896 417.044 22.94 418.664 22.832C419.924 22.796 420.86 22.112 420.86 21.14C420.896 20.276 420.284 19.844 419.024 19.556ZM444.342 9.188L433.938 34.208H429.294L433.146 24.704L426.594 9.188H431.274L435.45 19.664L439.662 9.188H444.342ZM474.308 18.476L479.636 1.196H484.64L476.216 26H472.508L468.692 11.924L464.948 26H461.204L452.852 1.196H457.82L463.112 18.476L466.892 4.652H470.564L474.308 18.476ZM498.38 26V23.84C497.336 25.568 494.78 26.324 493.16 26.324C488.732 26.324 484.592 22.94 484.592 17.576C484.592 12.212 488.732 8.828 493.16 8.828C494.708 8.828 497.12 9.44 498.38 11.276V9.188H502.772V26H498.38ZM489.128 17.576C489.128 20.312 491.324 22.112 493.772 22.112C496.184 22.112 498.38 20.456 498.38 17.576C498.38 14.696 496.076 13.04 493.772 13.04C491.324 13.04 489.128 14.84 489.128 17.576ZM523.338 9.188L512.934 34.208H508.29L512.142 24.704L505.59 9.188H510.27L514.446 19.664L518.658 9.188H523.338ZM526.136 1.196H531.284L530.6 18.764H526.82L526.136 1.196ZM525.848 23.624C525.848 22.04 527.108 20.888 528.656 20.888C530.24 20.888 531.536 22.04 531.536 23.624C531.536 25.208 530.24 26.36 528.656 26.36C527.108 26.36 525.848 25.208 525.848 23.624Z" fill="white"/>
</svg>
