<svg width="24" height="25" viewBox="0 0 24 25" fill="none" xmlns="http://www.w3.org/2000/svg">
<path fill-rule="evenodd" clip-rule="evenodd" d="M14.5752 9.06189C14.0934 8.76241 13.9467 8.12982 14.2452 7.64798C14.5446 7.16613 15.1782 7.01945 15.6591 7.31895C17.6638 8.56988 18.9136 10.7876 18.9136 13.1833C18.9136 17.0014 15.8179 20.0971 11.9998 20.0971C8.18175 20.0971 5.08501 17.0014 5.08501 13.1833C5.08501 10.8384 6.26972 8.68178 8.20001 7.41048C8.67267 7.09979 9.3073 7.2312 9.61799 7.70386C9.92869 8.17652 9.79728 8.81115 9.32462 9.12184C6.76878 10.8047 6.38381 14.4363 8.56366 16.6172C10.4604 18.5139 13.5357 18.5139 15.4326 16.6172C17.639 14.4107 17.2254 10.7212 14.5728 9.0616L14.5752 9.06189ZM12 0.5C5.37257 0.5 0 5.87257 0 12.5C0 19.1274 5.37257 24.5 12 24.5C18.6274 24.5 24 19.1274 24 12.5C24 5.87257 18.6274 0.5 12 0.5ZM21.9432 12.5C21.9432 7.00826 17.4917 2.55676 12 2.55676C6.50826 2.55676 2.05676 7.00826 2.05676 12.5C2.05676 17.9917 6.50826 22.4432 12 22.4432C17.4917 22.4432 21.9432 17.9917 21.9432 12.5ZM10.9723 5.9315V11.2723C10.9723 11.8407 11.4327 12.3011 12.0011 12.3011C12.5695 12.3011 13.03 11.8407 13.03 11.2723V5.9315C13.03 5.36308 12.5695 4.90265 12.0011 4.90265C11.4327 4.90265 10.9723 5.36308 10.9723 5.9315Z" fill="#FF3D60"/>
</svg>
